<?xml version="1.0" encoding="UTF-8"?>
<svg version="1.1" xmlns="http://www.w3.org/2000/svg" width="467" height="329">
<path d="M0 0 C0.8548508 -0.05239743 1.7097016 -0.10479486 2.59045696 -0.1587801 C13.82687523 -0.81575904 25.0701653 -1.21670737 36.32202148 -1.48779297 C37.93235575 -1.52741842 37.93235575 -1.52741842 39.57522202 -1.56784439 C86.06947037 -2.57847597 86.06947037 -2.57847597 100.80528259 10.05194092 C107.75931118 16.86054702 113.68152166 24.79096602 117.75952148 33.63720703 C117.75952148 34.62720703 117.75952148 35.61720703 117.75952148 36.63720703 C118.74952148 36.63720703 119.73952148 36.63720703 120.75952148 36.63720703 C122.52052115 38.25641589 124.12866337 39.89476153 125.75952148 41.63720703 C126.86184865 42.73341495 127.96935154 43.82443456 129.08105469 44.91113281 C132.37912316 48.15599726 135.66817305 51.40983712 138.95410156 54.66699219 C140.3723651 56.07005128 141.79329186 57.47042312 143.21679688 58.86816406 C145.27583535 60.89097104 147.32516963 62.9231763 149.37280273 64.95751953 C150.33359489 65.89508591 150.33359489 65.89508591 151.313797 66.85159302 C151.8982811 67.43585052 152.4827652 68.02010803 153.08496094 68.62207031 C153.86175957 69.38887619 153.86175957 69.38887619 154.6542511 70.1711731 C155.75952148 71.63720703 155.75952148 71.63720703 155.75952148 74.63720703 C154.49291992 75.98242187 154.49291992 75.98242187 152.61889648 77.47314453 C146.68629001 82.44660273 141.30016671 87.94708411 135.84008789 93.42626953 C134.0031625 95.26858468 132.16091349 97.10545581 130.31811523 98.94189453 C129.13680465 100.12386547 127.95580407 101.30614632 126.77514648 102.48876953 C125.95787079 103.30300888 125.95787079 103.30300888 125.12408447 104.13369751 C122.75052971 106.521796 120.58599486 108.85955449 118.50854492 111.52148438 C117.93136719 112.21967285 117.35418945 112.91786133 116.75952148 113.63720703 C116.09952148 113.63720703 115.43952148 113.63720703 114.75952148 113.63720703 C114.75952148 114.29720703 114.75952148 114.95720703 114.75952148 115.63720703 C114.09952148 115.63720703 113.43952148 115.63720703 112.75952148 115.63720703 C112.75952148 116.29720703 112.75952148 116.95720703 112.75952148 117.63720703 C110.38452148 120.26220703 110.38452148 120.26220703 107.75952148 122.63720703 C107.09952148 122.63720703 106.43952148 122.63720703 105.75952148 122.63720703 C105.75952148 123.29720703 105.75952148 123.95720703 105.75952148 124.63720703 C103.38452148 127.26220703 103.38452148 127.26220703 100.75952148 129.63720703 C100.09952148 129.63720703 99.43952148 129.63720703 98.75952148 129.63720703 C98.75952148 130.29720703 98.75952148 130.95720703 98.75952148 131.63720703 C98.09952148 131.63720703 97.43952148 131.63720703 96.75952148 131.63720703 C96.75952148 132.29720703 96.75952148 132.95720703 96.75952148 133.63720703 C94.38452148 136.26220703 94.38452148 136.26220703 91.75952148 138.63720703 C91.09952148 138.63720703 90.43952148 138.63720703 89.75952148 138.63720703 C89.75952148 139.29720703 89.75952148 139.95720703 89.75952148 140.63720703 C87.38452148 143.26220703 87.38452148 143.26220703 84.75952148 145.63720703 C84.09952148 145.63720703 83.43952148 145.63720703 82.75952148 145.63720703 C82.75952148 146.29720703 82.75952148 146.95720703 82.75952148 147.63720703 C80.18750104 150.43617045 77.44852618 152.92522977 74.50952148 155.32470703 C71.74209955 157.34143923 71.74209955 157.34143923 70.75952148 159.63720703 C70.09952148 159.63720703 69.43952148 159.63720703 68.75952148 159.63720703 C68.75952148 160.29720703 68.75952148 160.95720703 68.75952148 161.63720703 C68.09952148 161.63720703 67.43952148 161.63720703 66.75952148 161.63720703 C66.75952148 162.29720703 66.75952148 162.95720703 66.75952148 163.63720703 C65.38452148 165.26220703 65.38452148 165.26220703 63.75952148 166.63720703 C63.09952148 166.63720703 62.43952148 166.63720703 61.75952148 166.63720703 C61.75952148 167.29720703 61.75952148 167.95720703 61.75952148 168.63720703 C61.09952148 168.63720703 60.43952148 168.63720703 59.75952148 168.63720703 C59.75952148 169.29720703 59.75952148 169.95720703 59.75952148 170.63720703 C58.38452148 172.26220703 58.38452148 172.26220703 56.75952148 173.63720703 C56.09952148 173.63720703 55.43952148 173.63720703 54.75952148 173.63720703 C54.75952148 174.29720703 54.75952148 174.95720703 54.75952148 175.63720703 C54.09952148 175.63720703 53.43952148 175.63720703 52.75952148 175.63720703 C52.75952148 176.29720703 52.75952148 176.95720703 52.75952148 177.63720703 C50.38452148 180.26220703 50.38452148 180.26220703 47.75952148 182.63720703 C47.09952148 182.63720703 46.43952148 182.63720703 45.75952148 182.63720703 C45.75952148 183.29720703 45.75952148 183.95720703 45.75952148 184.63720703 C43.38452148 187.26220703 43.38452148 187.26220703 40.75952148 189.63720703 C40.09952148 189.63720703 39.43952148 189.63720703 38.75952148 189.63720703 C38.75952148 190.29720703 38.75952148 190.95720703 38.75952148 191.63720703 C38.09952148 191.63720703 37.43952148 191.63720703 36.75952148 191.63720703 C36.75952148 192.29720703 36.75952148 192.95720703 36.75952148 193.63720703 C35.38452148 195.26220703 35.38452148 195.26220703 33.75952148 196.63720703 C33.09952148 196.63720703 32.43952148 196.63720703 31.75952148 196.63720703 C31.75952148 197.29720703 31.75952148 197.95720703 31.75952148 198.63720703 C31.09952148 198.63720703 30.43952148 198.63720703 29.75952148 198.63720703 C29.75952148 199.29720703 29.75952148 199.95720703 29.75952148 200.63720703 C27.38452148 203.26220703 27.38452148 203.26220703 24.75952148 205.63720703 C24.09952148 205.63720703 23.43952148 205.63720703 22.75952148 205.63720703 C22.75952148 206.29720703 22.75952148 206.95720703 22.75952148 207.63720703 C22.09952148 207.63720703 21.43952148 207.63720703 20.75952148 207.63720703 C20.75952148 208.29720703 20.75952148 208.95720703 20.75952148 209.63720703 C17.69913007 211.67746797 17.11618378 211.88651987 13.67829895 211.87771606 C12.85130651 211.88047106 12.02431406 211.88322605 11.17226124 211.88606453 C10.26495605 211.87886831 9.35765085 211.8716721 8.42285156 211.86425781 C6.96521786 211.86461942 6.96521786 211.86461942 5.47813702 211.86498833 C2.32834956 211.86349393 -0.82120207 211.8482553 -3.97094727 211.83251953 C-5.91385789 211.82957949 -7.85677009 211.82753881 -9.79968262 211.82641602 C-17.00913872 211.81592417 -24.21856093 211.78800183 -31.42797852 211.76220703 C-55.59016602 211.70033203 -55.59016602 211.70033203 -80.24047852 211.63720703 C-80.24047852 172.36720703 -80.24047852 133.09720703 -80.24047852 92.63720703 C-73.3861513 96.06437064 -67.25478021 101.01908076 -63.24047852 107.63720703 C-61.0887857 114.15746818 -61.71864768 121.17316004 -61.97094727 127.93798828 C-61.99524513 129.86990624 -62.01372592 131.80190523 -62.02668762 133.7339325 C-62.07593137 138.77818571 -62.20324972 143.81744078 -62.34783936 148.85974121 C-62.50530539 154.93123831 -62.56408816 161.00442321 -62.63973236 167.07738495 C-62.76509527 176.26745032 -63.01433711 185.44658836 -63.24047852 194.63720703 C-38.16047852 194.30720703 -13.08047852 193.97720703 12.75952148 193.63720703 C13.41952148 192.31720703 14.07952148 190.99720703 14.75952148 189.63720703 C16.25952148 187.88720703 16.25952148 187.88720703 17.75952148 186.63720703 C18.41952148 186.63720703 19.07952148 186.63720703 19.75952148 186.63720703 C20.02764648 186.03908203 20.29577148 185.44095703 20.57202148 184.82470703 C21.75869555 182.63872849 22.85551261 181.22388109 24.75952148 179.63720703 C25.41952148 179.63720703 26.07952148 179.63720703 26.75952148 179.63720703 C26.75952148 178.97720703 26.75952148 178.31720703 26.75952148 177.63720703 C27.41952148 177.63720703 28.07952148 177.63720703 28.75952148 177.63720703 C29.02764648 176.99783203 29.29577148 176.35845703 29.57202148 175.69970703 C30.75952148 173.63720703 30.75952148 173.63720703 33.75952148 172.63720703 C33.75952148 171.97720703 33.75952148 171.31720703 33.75952148 170.63720703 C34.41952148 170.63720703 35.07952148 170.63720703 35.75952148 170.63720703 C36.02764648 169.99783203 36.29577148 169.35845703 36.57202148 168.69970703 C37.75952148 166.63720703 37.75952148 166.63720703 40.75952148 165.63720703 C40.75952148 164.97720703 40.75952148 164.31720703 40.75952148 163.63720703 C41.41952148 163.63720703 42.07952148 163.63720703 42.75952148 163.63720703 C43.02764648 163.03908203 43.29577148 162.44095703 43.57202148 161.82470703 C44.75869555 159.63872849 45.85551261 158.22388109 47.75952148 156.63720703 C48.41952148 156.63720703 49.07952148 156.63720703 49.75952148 156.63720703 C50.02764648 156.03908203 50.29577148 155.44095703 50.57202148 154.82470703 C51.75869555 152.63872849 52.85551261 151.22388109 54.75952148 149.63720703 C55.41952148 149.63720703 56.07952148 149.63720703 56.75952148 149.63720703 C57.12207031 148.78787598 57.12207031 148.78787598 57.49194336 147.92138672 C59.01047965 145.18497963 60.83104029 143.30651365 63.04077148 141.09033203 C63.8825293 140.24599609 64.72428711 139.40166016 65.59155273 138.53173828 C66.47198242 137.65904297 67.35241211 136.78634766 68.25952148 135.88720703 C69.13995117 134.99904297 70.02038086 134.11087891 70.92749023 133.19580078 C71.76924805 132.35662109 72.61100586 131.51744141 73.47827148 130.65283203 C74.25106445 129.88229492 75.02385742 129.11175781 75.82006836 128.31787109 C77.75952148 126.63720703 77.75952148 126.63720703 79.75952148 126.63720703 C80.16170898 125.74001953 80.16170898 125.74001953 80.57202148 124.82470703 C81.75869555 122.63872849 82.85551261 121.22388109 84.75952148 119.63720703 C85.41952148 119.63720703 86.07952148 119.63720703 86.75952148 119.63720703 C87.00721283 119.06419861 87.25490417 118.49119019 87.51010132 117.90081787 C88.95554314 115.2820689 90.62857597 113.52808539 92.75024414 111.41943359 C93.57094391 110.59888489 94.39164368 109.77833618 95.23721313 108.93292236 C96.12371552 108.05674255 97.0102179 107.18056274 97.92358398 106.27783203 C98.83079193 105.37345398 99.73799988 104.46907593 100.67269897 103.53729248 C103.07836568 101.13924245 105.48997884 98.74726085 107.90289307 96.35650635 C110.36654492 93.91335532 112.82450726 91.46449497 115.28295898 89.01611328 C120.10325721 84.21786915 124.92921992 79.42537971 129.75952148 74.63720703 C129.45014648 74.03908203 129.14077148 73.44095703 128.82202148 72.82470703 C127.75952148 70.63720703 127.75952148 70.63720703 126.75952148 67.63720703 C125.76952148 67.30720703 124.77952148 66.97720703 123.75952148 66.63720703 C123.75952148 65.97720703 123.75952148 65.31720703 123.75952148 64.63720703 C123.09952148 64.63720703 122.43952148 64.63720703 121.75952148 64.63720703 C121.75952148 63.97720703 121.75952148 63.31720703 121.75952148 62.63720703 C121.22842773 62.43095703 120.69733398 62.22470703 120.15014648 62.01220703 C116.75178712 60.05759511 114.2489622 57.41596986 111.50952148 54.63720703 C110.95522461 54.09064453 110.40092773 53.54408203 109.82983398 52.98095703 C105.75952148 48.89059373 105.75952148 48.89059373 105.75952148 46.63720703 C105.09952148 46.63720703 104.43952148 46.63720703 103.75952148 46.63720703 C103.75952148 45.97720703 103.75952148 45.31720703 103.75952148 44.63720703 C102.76952148 44.30720703 101.77952148 43.97720703 100.75952148 43.63720703 C100.75952148 42.97720703 100.75952148 42.31720703 100.75952148 41.63720703 C100.09952148 41.63720703 99.43952148 41.63720703 98.75952148 41.63720703 C98.75952148 40.97720703 98.75952148 40.31720703 98.75952148 39.63720703 C98.12014648 39.36908203 97.48077148 39.10095703 96.82202148 38.82470703 C94.75952148 37.63720703 94.75952148 37.63720703 93.75952148 34.63720703 C92.44232219 33.93920399 91.10614194 33.27660955 89.75952148 32.63720703 C87.83764648 30.98095703 87.83764648 30.98095703 86.00952148 29.13720703 C85.39592773 28.52876953 84.78233398 27.92033203 84.15014648 27.29345703 C82.75952148 25.63720703 82.75952148 25.63720703 82.75952148 23.63720703 C82.12014648 23.36908203 81.48077148 23.10095703 80.82202148 22.82470703 C78.75952148 21.63720703 78.75952148 21.63720703 77.75952148 18.63720703 C65.36407388 17.2182921 52.97801931 16.32647393 40.50952148 15.88720703 C39.59197712 15.85457134 38.67443275 15.82193565 37.72908401 15.788311 C13.08381933 15.04940635 -5.5173506 17.43064337 -23.94400024 34.73770142 C-27.55000761 38.2566922 -30.95616432 41.93486765 -34.30297852 45.69970703 C-34.85544754 46.3206575 -35.40791656 46.94160797 -35.97712708 47.58137512 C-42.79244273 55.30898353 -49.18420084 63.29951911 -55.24047852 71.63720703 C-53.86936235 74.71638099 -52.31292921 76.80507739 -49.91816711 79.16638184 C-49.23242615 79.84764633 -48.54668518 80.52891083 -47.84016418 81.2308197 C-47.08837387 81.96756424 -46.33658356 82.70430878 -45.56201172 83.46337891 C-44.37410538 84.63967613 -44.37410538 84.63967613 -43.16220093 85.83973694 C-41.44275969 87.5415256 -39.72112972 89.24110501 -37.99758339 90.93873596 C-35.27415495 93.62281471 -32.55825644 96.3142951 -29.8445282 99.00817871 C-22.12830815 106.66627613 -14.40266965 114.314748 -6.66210938 121.94824219 C-1.92845893 126.61659281 2.7920606 131.29797402 7.50553322 135.98670959 C9.30753524 137.77440631 11.11420657 139.55740863 12.92551231 141.3356781 C15.45151891 143.81623279 17.96191189 146.3116209 20.46923828 148.81103516 C21.22710129 149.54777969 21.98496429 150.28452423 22.76579285 151.04359436 C23.44307434 151.72485886 24.12035583 152.40612335 24.81816101 153.10803223 C25.41380702 153.69647163 26.00945303 154.28491104 26.62314892 154.89118195 C27.75952148 156.63720703 27.75952148 156.63720703 27.55883503 158.71031952 C26.42865965 161.43480834 24.69464003 163.23104733 22.69702148 165.38720703 C21.59680664 166.58603516 21.59680664 166.58603516 20.47436523 167.80908203 C19.9084668 168.41236328 19.34256836 169.01564453 18.75952148 169.63720703 C16.82202148 169.25830078 16.82202148 169.25830078 14.75952148 168.63720703 C14.07581699 167.31252957 13.40987963 165.97857071 12.75952148 164.63720703 C11.91167084 164.243479 11.91167084 164.243479 11.04669189 163.84179688 C7.90582447 162.18758826 5.64020068 159.796354 3.16479492 157.30126953 C2.61801086 156.75799011 2.07122681 156.21471069 1.50787354 155.65496826 C-0.29350799 153.8623718 -2.08749619 152.06257961 -3.88110352 150.26220703 C-5.1306278 149.01402993 -6.38044886 147.76614984 -7.6305542 146.51855469 C-10.24630819 143.90574726 -12.85841497 141.28936102 -15.46801758 138.67041016 C-18.81955527 135.30745464 -22.1800224 131.95358803 -25.54324722 128.60232544 C-28.12383251 126.0289512 -30.69965497 123.45085225 -33.27404022 120.87127686 C-34.51178767 119.63219204 -35.75103132 118.39460001 -36.99176788 117.1585083 C-38.72049688 115.43483464 -40.44272433 113.7049218 -42.16333008 111.97314453 C-42.93936584 111.20318146 -42.93936584 111.20318146 -43.7310791 110.41766357 C-47.24047852 106.86573887 -47.24047852 106.86573887 -47.24047852 104.63720703 C-47.90047852 104.63720703 -48.56047852 104.63720703 -49.24047852 104.63720703 C-49.24047852 103.97720703 -49.24047852 103.31720703 -49.24047852 102.63720703 C-50.72547852 102.14220703 -50.72547852 102.14220703 -52.24047852 101.63720703 C-52.24047852 100.97720703 -52.24047852 100.31720703 -52.24047852 99.63720703 C-52.79735352 99.41033203 -53.35422852 99.18345703 -53.92797852 98.94970703 C-56.90207439 97.26170667 -58.96056717 95.17044186 -61.24047852 92.63720703 C-61.24047852 91.97720703 -61.24047852 91.31720703 -61.24047852 90.63720703 C-61.87985352 90.36908203 -62.51922852 90.10095703 -63.17797852 89.82470703 C-65.24047852 88.63720703 -65.24047852 88.63720703 -66.24047852 85.63720703 C-67.55767781 84.93920399 -68.89385806 84.27660955 -70.24047852 83.63720703 C-72.16235352 81.98095703 -72.16235352 81.98095703 -73.99047852 80.13720703 C-74.60407227 79.52876953 -75.21766602 78.92033203 -75.84985352 78.29345703 C-77.24047852 76.63720703 -77.24047852 76.63720703 -77.24047852 74.63720703 C-77.90047852 74.63720703 -78.56047852 74.63720703 -79.24047852 74.63720703 C-78.96231609 69.12614689 -75.63620363 66.48722054 -71.91650391 62.84326172 C-71.25632767 62.18089508 -70.59615143 61.51852844 -69.91596985 60.83609009 C-67.73285701 58.65066697 -65.53580154 56.47986129 -63.33813477 54.30908203 C-61.81897865 52.79484901 -60.30063286 51.27980262 -58.7830658 49.76397705 C-55.60208499 46.59063643 -52.41475467 43.42387056 -49.22216797 40.26220703 C-45.12324948 36.20291377 -41.03522101 32.13287692 -36.95122623 28.05857468 C-33.06288987 24.18019638 -29.16960075 20.30680684 -25.27563477 16.43408203 C-24.15647014 15.32001102 -24.15647014 15.32001102 -23.01469612 14.18343353 C-20.91045349 12.09072961 -18.80277012 10.00156067 -16.69384766 7.91357422 C-16.06675903 7.2891745 -15.43967041 6.66477478 -14.7935791 6.02145386 C-9.74830557 1.03913161 -6.91329604 0.41076332 0 0 Z " fill="#1C80AB" transform="translate(159.240478515625,100.36279296875)"/>
<path d="M0 0 C1.11459552 0.94860538 2.22822709 1.89834345 3.34145641 2.84855175 C4.27184318 3.64169538 4.27184318 3.64169538 5.22102565 4.45086211 C7.54364805 6.47341087 9.72366001 8.61139334 11.89379883 10.79614258 C12.78774857 11.69339554 13.6816983 12.5906485 14.60273743 13.51509094 C15.30071662 14.21924857 15.30071662 14.21924857 16.0127964 14.93763161 C17.48589115 16.42364423 18.96222267 17.9063746 20.43937683 19.38835144 C23.56659736 22.5269089 26.68982383 25.66942202 29.8125 28.8125 C33.45071759 32.47434238 37.09056663 36.13453268 40.73462486 39.79056358 C42.18913995 41.25156022 43.64061406 42.71553273 45.09199524 44.17964172 C46.40927864 45.50187996 46.40927864 45.50187996 47.75317383 46.85083008 C48.52703934 47.6299324 49.30090485 48.40903473 50.09822083 49.21174622 C51.88235442 51.06072112 51.88235442 51.06072112 54 52 C54 43.09 54 34.18 54 25 C60.10559655 24.97709447 66.21104516 24.95716633 72.31665039 24.94506836 C74.39543156 24.94002712 76.47420916 24.93319426 78.55297852 24.92456055 C81.53402586 24.91248578 84.51502649 24.90676976 87.49609375 24.90234375 C88.89921059 24.89460182 88.89921059 24.89460182 90.33067322 24.88670349 C91.19149002 24.88662796 92.05230682 24.88655243 92.93920898 24.88647461 C94.08171364 24.88314369 94.08171364 24.88314369 95.24729919 24.87974548 C97 25 97 25 98 26 C98.0732036 28.15214031 98.07513358 30.30672211 98.05004883 32.45996094 C98.04376968 33.13482544 98.03749054 33.80968994 98.03102112 34.50500488 C98.01713653 35.97556258 98.00119321 37.44610191 97.98346901 38.91661835 C97.95690764 41.24521129 97.93898933 43.57371025 97.92399597 45.90240479 C97.88117327 52.52527993 97.8336964 59.14796969 97.75317383 65.77050781 C97.7045978 69.81761253 97.67563824 73.86445347 97.65942955 77.91181183 C97.649537 79.45400622 97.63233423 80.99617189 97.60764503 82.53820038 C97.57381929 84.69994502 97.56500856 86.86048399 97.56176758 89.02246094 C97.54986893 90.25188416 97.53797028 91.48130737 97.52571106 92.74798584 C98.29195582 98.00182714 101.5240437 100.7929485 105.4765625 104.04956055 C111.40525389 109.12706173 116.85739621 114.69299528 122.375 120.20703125 C123.55176758 121.38058023 124.72860802 122.55405616 125.90551758 123.72746277 C128.3546337 126.17062943 130.80171345 128.61581487 133.24755859 131.06225586 C136.38770592 134.20250565 139.53472732 137.33577044 142.68347168 140.46739674 C145.10770797 142.88055319 147.52742491 145.29820157 149.94586182 147.71716881 C151.10532494 148.87544977 152.26641479 150.03210466 153.42913818 151.18711281 C155.04475875 152.79299636 156.65399219 154.40501774 158.26171875 156.01879883 C159.17912842 156.93478348 160.09653809 157.85076813 161.04174805 158.79450989 C163 161 163 161 163 163 C159.12557505 163.17500877 155.25217162 163.28108927 151.375 163.375 C150.28058594 163.42527344 149.18617188 163.47554687 148.05859375 163.52734375 C140.09877733 163.67206768 140.09877733 163.67206768 136.88769531 161.70800781 C135.2265625 160.1015625 135.2265625 160.1015625 133 157 C133 156.34 133 155.68 133 155 C132.4661821 154.80369995 131.9323642 154.6073999 131.38237 154.40515137 C127.935221 152.37198014 125.53586652 149.46181707 122.88208008 146.51757812 C116.07035939 139.11602174 109.05643683 131.93291052 101.95581055 124.81054688 C101.40600167 124.25874724 100.85619279 123.70694761 100.28972304 123.13842678 C96.77192354 119.60906675 93.25016714 116.08367715 89.72696662 112.55970955 C87.87013706 110.7021619 86.0140242 108.84390109 84.15815163 106.98539734 C77.67442038 100.49248428 71.18818348 94.00208702 64.69946289 87.51416016 C58.65919156 81.47449431 52.6245757 75.42921696 46.59245652 69.38141012 C41.39147294 64.16738418 36.18667522 58.95718688 30.97884589 53.74999857 C27.87693891 50.64834666 24.77660898 47.5451573 21.68012047 44.43809509 C18.78286153 41.53120596 15.88090917 38.62908832 12.97517776 35.73066902 C11.90835205 34.66489407 10.84324766 33.59739303 9.77995872 32.52808952 C8.33440413 31.07488442 6.88213964 29.62836289 5.42948914 28.18225098 C4.61751414 27.36973122 3.80553915 26.55721146 2.96895885 25.72006989 C1.18471077 23.78069849 1.18471077 23.78069849 -1 24 C-2.35133033 25.3367959 -2.35133033 25.3367959 -3.7890625 27.1640625 C-7.13405542 31.09863427 -10.67446392 34.76269255 -14.3359375 38.3984375 C-14.90435364 38.96355042 -15.47276978 39.52866333 -16.05841064 40.11090088 C-17.82866524 41.86757375 -19.60141221 43.62169282 -21.375 45.375 C-23.73984331 47.71327915 -26.10136242 50.05484369 -28.4609375 52.3984375 C-29.0025351 52.93173676 -29.54413269 53.46503601 -30.10214233 54.01449585 C-32.90213794 56.74014611 -32.90213794 56.74014611 -35 60 C-35.66 60 -36.32 60 -37 60 C-37 60.66 -37 61.32 -37 62 C-37.66 62 -38.32 62 -39 62 C-39.268125 62.639375 -39.53625 63.27875 -39.8125 63.9375 C-41 66 -41 66 -44 67 C-44.28012939 67.56557617 -44.56025879 68.13115234 -44.84887695 68.71386719 C-46.45377804 71.90120415 -48.89108069 74.1173338 -51.41796875 76.578125 C-51.95343826 77.10839294 -52.48890778 77.63866089 -53.04060364 78.18499756 C-54.75153752 79.87817056 -56.46898768 81.56452208 -58.1875 83.25 C-59.88734275 84.92198442 -61.58561302 86.59548911 -63.28083801 88.27215576 C-64.33321783 89.3125396 -65.38825291 90.35024809 -66.44657898 91.38458252 C-69.22922505 94.130406 -71.85989043 96.95369602 -74.4152832 99.91308594 C-77.91811266 103.95941699 -81.62999443 107.74171911 -85.4375 111.5 C-86.12126709 112.17998047 -86.80503418 112.85996094 -87.50952148 113.56054688 C-90.39737773 116.43225143 -93.29123075 119.29788438 -96.18457031 122.1640625 C-98.31265725 124.27392787 -100.43762917 126.38689645 -102.5625 128.5 C-103.20437256 129.13357422 -103.84624512 129.76714844 -104.50756836 130.41992188 C-110.39526446 136.27612475 -115.79261883 142.46857647 -120.99609375 148.9375 C-133.20164253 163.20790245 -133.20164253 163.20790245 -142.578125 164.23046875 C-148.44176512 164.38539796 -154.20992248 163.91805697 -160 163 C-160.33 162.34 -160.66 161.68 -161 161 C-107.33333333 107.33333333 -53.66666667 53.66666667 0 0 Z M66 39 C63.65139536 56.02463321 63.65139536 56.02463321 69.52734375 71.35546875 C73.29538032 75.33265021 77.41471102 78.98535467 82 82 C82.33 82 82.66 82 83 82 C83 67.81 83 53.62 83 39 C77.39 39 71.78 39 66 39 Z " fill="#269D9D" transform="translate(196,13)"/>
<path d="M0 0 C0.8548508 -0.05239743 1.7097016 -0.10479486 2.59045696 -0.1587801 C13.82687523 -0.81575904 25.0701653 -1.21670737 36.32202148 -1.48779297 C37.93235575 -1.52741842 37.93235575 -1.52741842 39.57522202 -1.56784439 C86.06947037 -2.57847597 86.06947037 -2.57847597 100.80528259 10.05194092 C107.75931118 16.86054702 113.68152166 24.79096602 117.75952148 33.63720703 C117.75952148 34.62720703 117.75952148 35.61720703 117.75952148 36.63720703 C118.74952148 36.63720703 119.73952148 36.63720703 120.75952148 36.63720703 C123.12939453 38.81958008 123.12939453 38.81958008 125.75952148 41.63720703 C126.58299072 42.46067627 127.40645996 43.28414551 128.25488281 44.13256836 C134.4230957 50.30078125 140.59130859 56.46899414 146.75952148 62.63720703 C145.76952148 62.96720703 144.77952148 63.29720703 143.75952148 63.63720703 C143.01702148 62.70908203 142.27452148 61.78095703 141.50952148 60.82470703 C139.46926588 58.36593745 137.43480825 56.42073154 134.75952148 54.63720703 C134.09952148 55.62720703 133.43952148 56.61720703 132.75952148 57.63720703 C132.09952148 57.63720703 131.43952148 57.63720703 130.75952148 57.63720703 C130.42952148 56.64720703 130.09952148 55.65720703 129.75952148 54.63720703 C130.74952148 54.30720703 131.73952148 53.97720703 132.75952148 53.63720703 C132.42952148 52.64720703 132.09952148 51.65720703 131.75952148 50.63720703 C130.64577148 50.91564453 130.64577148 50.91564453 129.50952148 51.19970703 C126.80961186 51.62923811 125.31321071 51.48843677 122.75952148 50.63720703 C123.08952148 49.97720703 123.41952148 49.31720703 123.75952148 48.63720703 C123.42952148 48.30720703 123.09952148 47.97720703 122.75952148 47.63720703 C122.39509916 45.97706088 122.05979265 44.31014639 121.75952148 42.63720703 C116.80952148 43.13220703 116.80952148 43.13220703 111.75952148 43.63720703 C111.94081963 47.07514042 111.94081963 47.07514042 112.75952148 50.63720703 C114.5290747 52.2728347 114.5290747 52.2728347 116.75952148 52.63720703 C117.74952148 52.30720703 118.73952148 51.97720703 119.75952148 51.63720703 C119.75952148 54.60720703 119.75952148 57.57720703 119.75952148 60.63720703 C120.74952148 60.96720703 121.73952148 61.29720703 122.75952148 61.63720703 C123.08952148 62.62720703 123.41952148 63.61720703 123.75952148 64.63720703 C123.09952148 64.63720703 122.43952148 64.63720703 121.75952148 64.63720703 C121.75952148 63.97720703 121.75952148 63.31720703 121.75952148 62.63720703 C121.22842773 62.43095703 120.69733398 62.22470703 120.15014648 62.01220703 C116.75178712 60.05759511 114.2489622 57.41596986 111.50952148 54.63720703 C110.95522461 54.09064453 110.40092773 53.54408203 109.82983398 52.98095703 C105.75952148 48.89059373 105.75952148 48.89059373 105.75952148 46.63720703 C105.09952148 46.63720703 104.43952148 46.63720703 103.75952148 46.63720703 C103.75952148 45.97720703 103.75952148 45.31720703 103.75952148 44.63720703 C102.76952148 44.30720703 101.77952148 43.97720703 100.75952148 43.63720703 C100.75952148 42.97720703 100.75952148 42.31720703 100.75952148 41.63720703 C100.09952148 41.63720703 99.43952148 41.63720703 98.75952148 41.63720703 C98.75952148 40.97720703 98.75952148 40.31720703 98.75952148 39.63720703 C98.12014648 39.36908203 97.48077148 39.10095703 96.82202148 38.82470703 C94.75952148 37.63720703 94.75952148 37.63720703 93.75952148 34.63720703 C92.44232219 33.93920399 91.10614194 33.27660955 89.75952148 32.63720703 C87.83764648 30.98095703 87.83764648 30.98095703 86.00952148 29.13720703 C85.39592773 28.52876953 84.78233398 27.92033203 84.15014648 27.29345703 C82.75952148 25.63720703 82.75952148 25.63720703 82.75952148 23.63720703 C82.12014648 23.36908203 81.48077148 23.10095703 80.82202148 22.82470703 C78.75952148 21.63720703 78.75952148 21.63720703 77.75952148 18.63720703 C65.36407388 17.2182921 52.97801931 16.32647393 40.50952148 15.88720703 C39.59197712 15.85457134 38.67443275 15.82193565 37.72908401 15.788311 C13.08381933 15.04940635 -5.5173506 17.43064337 -23.94400024 34.73770142 C-27.55000761 38.2566922 -30.95616432 41.93486765 -34.30297852 45.69970703 C-34.85544754 46.3206575 -35.40791656 46.94160797 -35.97712708 47.58137512 C-42.79244273 55.30898353 -49.18420084 63.29951911 -55.24047852 71.63720703 C-53.86936235 74.71638099 -52.31292921 76.80507739 -49.91816711 79.16638184 C-49.23242615 79.84764633 -48.54668518 80.52891083 -47.84016418 81.2308197 C-47.08837387 81.96756424 -46.33658356 82.70430878 -45.56201172 83.46337891 C-44.37410538 84.63967613 -44.37410538 84.63967613 -43.16220093 85.83973694 C-41.44275969 87.5415256 -39.72112972 89.24110501 -37.99758339 90.93873596 C-35.27415495 93.62281471 -32.55825644 96.3142951 -29.8445282 99.00817871 C-22.12830815 106.66627613 -14.40266965 114.314748 -6.66210938 121.94824219 C-1.92845893 126.61659281 2.7920606 131.29797402 7.50553322 135.98670959 C9.30753524 137.77440631 11.11420657 139.55740863 12.92551231 141.3356781 C15.45151891 143.81623279 17.96191189 146.3116209 20.46923828 148.81103516 C21.22710129 149.54777969 21.98496429 150.28452423 22.76579285 151.04359436 C23.44307434 151.72485886 24.12035583 152.40612335 24.81816101 153.10803223 C25.41380702 153.69647163 26.00945303 154.28491104 26.62314892 154.89118195 C27.75952148 156.63720703 27.75952148 156.63720703 27.55883503 158.71031952 C26.42865965 161.43480834 24.69464003 163.23104733 22.69702148 165.38720703 C21.59680664 166.58603516 21.59680664 166.58603516 20.47436523 167.80908203 C19.9084668 168.41236328 19.34256836 169.01564453 18.75952148 169.63720703 C16.82202148 169.25830078 16.82202148 169.25830078 14.75952148 168.63720703 C14.07581699 167.31252957 13.40987963 165.97857071 12.75952148 164.63720703 C11.91167084 164.243479 11.91167084 164.243479 11.04669189 163.84179688 C7.90582447 162.18758826 5.64020068 159.796354 3.16479492 157.30126953 C2.61801086 156.75799011 2.07122681 156.21471069 1.50787354 155.65496826 C-0.29350799 153.8623718 -2.08749619 152.06257961 -3.88110352 150.26220703 C-5.1306278 149.01402993 -6.38044886 147.76614984 -7.6305542 146.51855469 C-10.24630819 143.90574726 -12.85841497 141.28936102 -15.46801758 138.67041016 C-18.81955527 135.30745464 -22.1800224 131.95358803 -25.54324722 128.60232544 C-28.12383251 126.0289512 -30.69965497 123.45085225 -33.27404022 120.87127686 C-34.51178767 119.63219204 -35.75103132 118.39460001 -36.99176788 117.1585083 C-38.72049688 115.43483464 -40.44272433 113.7049218 -42.16333008 111.97314453 C-42.93936584 111.20318146 -42.93936584 111.20318146 -43.7310791 110.41766357 C-47.24047852 106.86573887 -47.24047852 106.86573887 -47.24047852 104.63720703 C-47.90047852 104.63720703 -48.56047852 104.63720703 -49.24047852 104.63720703 C-49.24047852 103.97720703 -49.24047852 103.31720703 -49.24047852 102.63720703 C-50.72547852 102.14220703 -50.72547852 102.14220703 -52.24047852 101.63720703 C-52.24047852 100.97720703 -52.24047852 100.31720703 -52.24047852 99.63720703 C-52.79735352 99.41033203 -53.35422852 99.18345703 -53.92797852 98.94970703 C-56.90207439 97.26170667 -58.96056717 95.17044186 -61.24047852 92.63720703 C-61.24047852 91.97720703 -61.24047852 91.31720703 -61.24047852 90.63720703 C-61.87985352 90.36908203 -62.51922852 90.10095703 -63.17797852 89.82470703 C-65.24047852 88.63720703 -65.24047852 88.63720703 -66.24047852 85.63720703 C-67.55767781 84.93920399 -68.89385806 84.27660955 -70.24047852 83.63720703 C-72.16235352 81.98095703 -72.16235352 81.98095703 -73.99047852 80.13720703 C-74.60407227 79.52876953 -75.21766602 78.92033203 -75.84985352 78.29345703 C-77.24047852 76.63720703 -77.24047852 76.63720703 -77.24047852 74.63720703 C-77.90047852 74.63720703 -78.56047852 74.63720703 -79.24047852 74.63720703 C-78.96231609 69.12614689 -75.63620363 66.48722054 -71.91650391 62.84326172 C-71.25632767 62.18089508 -70.59615143 61.51852844 -69.91596985 60.83609009 C-67.73285701 58.65066697 -65.53580154 56.47986129 -63.33813477 54.30908203 C-61.81897865 52.79484901 -60.30063286 51.27980262 -58.7830658 49.76397705 C-55.60208499 46.59063643 -52.41475467 43.42387056 -49.22216797 40.26220703 C-45.12324948 36.20291377 -41.03522101 32.13287692 -36.95122623 28.05857468 C-33.06288987 24.18019638 -29.16960075 20.30680684 -25.27563477 16.43408203 C-24.15647014 15.32001102 -24.15647014 15.32001102 -23.01469612 14.18343353 C-20.91045349 12.09072961 -18.80277012 10.00156067 -16.69384766 7.91357422 C-16.06675903 7.2891745 -15.43967041 6.66477478 -14.7935791 6.02145386 C-9.74830557 1.03913161 -6.91329604 0.41076332 0 0 Z M123.75952148 43.63720703 C124.75952148 45.63720703 124.75952148 45.63720703 124.75952148 45.63720703 Z " fill="#2596A0" transform="translate(159.240478515625,100.36279296875)"/>
<path d="M0 0 C0.99 0.495 0.99 0.495 2 1 C2.02346437 12.23368729 2.04108483 23.46736849 2.05181217 34.70107555 C2.05696808 39.92076182 2.06392798 45.14043099 2.07543945 50.36010742 C2.08653411 55.42413303 2.09233122 60.48814249 2.09487724 65.55217934 C2.09668482 67.4568539 2.1002098 69.36152787 2.10573006 71.2661953 C2.1509092 87.54477609 1.56174349 103.70943877 1 120 C-38.27 120 -77.54 120 -118 120 C-116.06065991 116.12131982 -114.38364955 114.13660063 -111.35568237 111.11517334 C-110.88028145 110.63806357 -110.40488053 110.16095379 -109.91507351 109.66938615 C-108.32293269 108.07395446 -106.72375541 106.48577032 -105.12451172 104.89746094 C-103.98094453 103.75445795 -102.83781767 102.61101427 -101.69509888 101.46716309 C-98.59234093 98.36383097 -95.48345212 95.26670692 -92.3734374 92.17064953 C-89.12405936 88.93376811 -85.88033856 85.69122771 -82.63601685 82.44927979 C-76.49187053 76.31135137 -70.34264344 70.17853932 -64.19158089 64.04754281 C-57.18893648 57.06724773 -50.19196555 50.08127747 -43.19546866 43.09482145 C-28.8032892 28.72355101 -14.40398925 14.3594331 0 0 Z M-21.059021 44.92349243 C-21.92324677 45.79075455 -21.92324677 45.79075455 -22.80493164 46.67553711 C-23.40979904 47.27865219 -24.01466644 47.88176727 -24.63786316 48.50315857 C-26.6478275 50.50870136 -28.65408821 52.51790417 -30.66015625 54.52734375 C-32.04863567 55.91515022 -33.43726357 57.30280816 -34.82603455 58.69032288 C-37.74055375 61.6033647 -40.65324848 64.5182157 -43.56469727 67.43432617 C-47.30650151 71.18182772 -51.05277589 74.92482331 -54.80042362 78.66648006 C-57.66999206 81.53244398 -60.53718546 84.40077437 -63.4036541 87.26983833 C-64.78449406 88.65134786 -66.16608407 90.0321081 -67.54841805 91.41212273 C-69.47618938 93.33736934 -71.40075075 95.26576697 -73.32446289 97.19506836 C-73.90263763 97.77121887 -74.48081238 98.34736938 -75.07650757 98.940979 C-77.76770499 101.11219456 -77.76770499 101.11219456 -79 104 C-58.21 104 -37.42 104 -16 104 C-16 83.21 -16 62.42 -16 41 C-18.18340002 41 -19.59221087 43.46459002 -21.059021 44.92349243 Z " fill="#197DB0" transform="translate(314,192)"/>
<path d="M0 0 C0.33 0.99 0.66 1.98 1 3 C2.31512062 3.70191166 3.65153401 4.36449886 5 5 C6.75999165 6.49992943 6.75999165 6.49992943 8.56282043 8.28866577 C9.25131073 8.96718094 9.93980103 9.64569611 10.64915466 10.34477234 C11.39375443 11.08870743 12.13835419 11.83264252 12.90551758 12.59912109 C13.69774719 13.38302719 14.48997681 14.16693329 15.30621338 14.97459412 C17.9244729 17.56874673 20.53499863 20.17050815 23.14453125 22.7734375 C24.9571716 24.57711529 26.76989136 26.38071328 28.58268738 28.18423462 C32.38007041 31.96512546 36.17304989 35.75037285 39.96362305 39.53808594 C44.34852816 43.91934865 48.74641368 48.28728237 53.15034944 52.64940774 C57.38571576 56.84596422 61.60731277 61.05618453 65.82388878 65.27162552 C67.62083302 67.06434978 69.42191947 68.85293167 71.22712135 70.63734055 C73.74381079 73.12732645 76.24438373 75.63245225 78.74145508 78.14208984 C79.49617599 78.88197647 80.25089691 79.6218631 81.02848816 80.38417053 C81.70287933 81.06832535 82.37727051 81.75248016 83.07209778 82.45736694 C83.66514615 83.04840399 84.25819452 83.63944103 84.86921406 84.24838829 C86 86 86 86 85.7984724 88.07395363 C84.66903852 90.79833336 82.93482792 92.59415399 80.9375 94.75 C80.20402344 95.54921875 79.47054687 96.3484375 78.71484375 97.171875 C77.86599609 98.07679688 77.86599609 98.07679688 77 99 C75.0625 98.62109375 75.0625 98.62109375 73 98 C72.3162955 96.67532254 71.65035814 95.34136367 71 94 C70.15214935 93.60627197 70.15214935 93.60627197 69.28717041 93.20458984 C66.14630299 91.55038123 63.88067919 89.15914697 61.40527344 86.6640625 C60.85848938 86.12078308 60.31170532 85.57750366 59.74835205 85.01776123 C57.94697052 83.22516477 56.15298232 81.42537258 54.359375 79.625 C53.10985071 78.37682289 51.86002965 77.12894281 50.60992432 75.88134766 C47.99417032 73.26854023 45.38206354 70.65215399 42.77246094 68.03320312 C39.42092324 64.67024761 36.06045611 61.316381 32.69723129 57.96511841 C30.11664601 55.39174416 27.54082354 52.81364522 24.96643829 50.23406982 C23.72869085 48.99498501 22.4894472 47.75739297 21.24871063 46.52130127 C19.51998163 44.79762761 17.79775419 43.06771477 16.07714844 41.3359375 C15.55979126 40.82262878 15.04243408 40.30932007 14.50939941 39.78045654 C11 36.22853184 11 36.22853184 11 34 C10.34 34 9.68 34 9 34 C9 33.34 9 32.68 9 32 C8.01 31.67 7.02 31.34 6 31 C6 30.34 6 29.68 6 29 C5.443125 28.773125 4.88625 28.54625 4.3125 28.3125 C1.33840412 26.62449964 -0.72008865 24.53323483 -3 22 C-3 21.34 -3 20.68 -3 20 C-3.639375 19.731875 -4.27875 19.46375 -4.9375 19.1875 C-7 18 -7 18 -8 15 C-9.32467746 14.3162955 -10.65863633 13.65035814 -12 13 C-12.66 12.01 -13.32 11.02 -14 10 C-13.34 10 -12.68 10 -12 10 C-11.67 9.01 -11.34 8.02 -11 7 C-8.9375 5.8125 -8.9375 5.8125 -7 5 C-7 4.34 -7 3.68 -7 3 C-4.69 3 -2.38 3 0 3 C0 2.01 0 1.02 0 0 Z " fill="#1E86A9" transform="translate(101,171)"/>
<path d="M0 0 C17.16 0 34.32 0 52 0 C52 12.21 52 24.42 52 37 C34.84 37 17.68 37 0 37 C0 24.79 0 12.58 0 0 Z " fill="#2292A3" transform="translate(171,130)"/>
<path d="M0 0 C16.83 0.33 33.66 0.66 51 1 C46.79741102 13.0073971 42.58619366 24.92327408 37.9375 36.75 C36.89422537 39.41343552 35.85282629 42.07759908 34.8125 44.7421875 C34.56439072 45.37694 34.31628143 46.0116925 34.06065369 46.66567993 C32.65933366 50.26352742 31.30219992 53.87296422 30 57.5078125 C29.72679932 58.26739258 29.45359863 59.02697266 29.17211914 59.80957031 C28.49961262 61.70036633 27.84089358 63.59605155 27.18359375 65.4921875 C26.79300781 66.31976563 26.40242188 67.14734375 26 68 C24.515 68.495 24.515 68.495 23 69 C22.84217041 68.43474609 22.68434082 67.86949219 22.52172852 67.28710938 C20.38052445 59.86960497 17.70540908 52.70344943 14.9375 45.5 C14.45564663 44.23461169 13.97420811 42.96906534 13.49316406 41.70336914 C11.28038371 35.89162564 9.04477916 30.08993338 6.75123596 24.30953979 C6.03368498 22.50052662 5.32062948 20.68973236 4.60766602 18.87890625 C3.71800498 16.62379711 2.8190753 14.37231757 1.90991211 12.125 C1.51167236 11.11308594 1.11343262 10.10117188 0.703125 9.05859375 C0.34895508 8.17486084 -0.00521484 7.29112793 -0.37011719 6.38061523 C-1 4 -1 4 0 0 Z " fill="#2088A6" transform="translate(172,179)"/>
<path d="M0 0 C0.99 0.495 0.99 0.495 2 1 C1.53802187 5.15780314 1.14081415 7.23608355 -2 10 C-2.4640625 11.051875 -2.4640625 11.051875 -2.9375 12.125 C-4 14 -4 14 -6.125 14.75 C-7.053125 14.87375 -7.053125 14.87375 -8 15 C-8.495 14.01 -8.495 14.01 -9 13 C-14.2042199 17.24860632 -18.32084439 21.36629298 -22 27 C-21.34 27.66 -20.68 28.32 -20 29 C-20.66 29 -21.32 29 -22 29 C-22.33 29.66 -22.66 30.32 -23 31 C-23.99 31.33 -24.98 31.66 -26 32 C-27.18519265 34.43276386 -28 36.28017286 -28 39 C-27.34 39 -26.68 39 -26 39 C-26 39.99 -26 40.98 -26 42 C-25.34 42 -24.68 42 -24 42 C-24 42.66 -24 43.32 -24 44 C-22.02 42.68 -20.04 41.36 -18 40 C-17.01 40.495 -17.01 40.495 -16 41 C-33.16 58.16 -50.32 75.32 -68 93 C-68 90 -68 90 -65.625 87.5625 C-64.325625 86.2940625 -64.325625 86.2940625 -63 85 C-62.62875 84.2575 -62.2575 83.515 -61.875 82.75 C-61 81 -61 81 -58 80 C-56.68964993 76.82757352 -56 74.44118336 -56 71 C-57.57925975 70.60819892 -59.16368794 70.23719264 -60.75 69.875 C-61.63171875 69.66617188 -62.5134375 69.45734375 -63.421875 69.2421875 C-66.37480317 68.96479122 -67.46290754 69.59941178 -70 71 C-66.01465059 66.22363301 -61.85518055 61.7141623 -57.44384766 57.33032227 C-56.81874298 56.70507156 -56.19363831 56.07982086 -55.54959106 55.43562317 C-53.50677921 53.39350149 -51.46046093 51.35493327 -49.4140625 49.31640625 C-47.98752317 47.89173428 -46.56120616 46.46683968 -45.13510132 45.04173279 C-41.39896155 41.30939313 -37.65982738 37.58006763 -33.92004395 33.85137939 C-30.09721303 30.03881671 -26.27724613 26.22338678 -22.45703125 22.40820312 C-14.97414133 14.93600629 -7.48808224 7.46699322 0 0 Z " fill="#2082A8" transform="translate(314,192)"/>
<path d="M0 0 C3.48055071 1.16018357 4.78136971 2.09282927 7 5 C7.25 8.75 7.25 8.75 7 12 C7.66 12 8.32 12 9 12 C7.84295832 21.7298171 -2.52930437 30.00361253 -9.81835938 36.01953125 C-17.96366848 41.08972366 -27.93219281 39.61608001 -37 38 C-37.33 37.34 -37.66 36.68 -38 36 C-37.67 35.34 -37.34 34.68 -37 34 C-36.13459595 33.84035767 -36.13459595 33.84035767 -35.25170898 33.67749023 C-31.94566604 32.68277385 -30.35112333 30.63389433 -27.97265625 28.16015625 C-27.50186142 27.67800156 -27.03106659 27.19584686 -26.54600525 26.69908142 C-24.53807103 24.64224976 -22.54830962 22.56816109 -20.55688477 20.49536133 C-19.09754884 18.98159573 -17.62915916 17.47703301 -16.16015625 15.97265625 C-15.29011963 15.06781494 -14.42008301 14.16297363 -13.52368164 13.23071289 C-11.02363694 11.02089298 -9.06682811 10.17449497 -6 9 C-4.33333333 6.08333333 -4.33333333 6.08333333 -3 3 C-1.3125 1.125 -1.3125 1.125 0 0 Z " fill="#2290A3" transform="translate(73,138)"/>
<path d="M0 0 C9.57 0 19.14 0 29 0 C33.50275229 9.00550459 33.50275229 9.00550459 34.96484375 13.06640625 C35.28775391 13.95763184 35.61066406 14.84885742 35.94335938 15.76708984 C36.27142578 16.6895752 36.59949219 17.61206055 36.9375 18.5625 C37.45473633 20.00036865 37.45473633 20.00036865 37.98242188 21.46728516 C40.77593792 29.27216013 43.44499688 37.11388462 46 45 C42.56011491 43.51756178 40.32743123 41.57544821 37.69042969 38.93334961 C36.84986023 38.09585678 36.00929077 37.25836395 35.14324951 36.39549255 C34.24519592 35.49025345 33.34714233 34.58501434 32.421875 33.65234375 C31.4953009 32.72531143 30.56872681 31.79827911 29.61407471 30.84315491 C27.65756833 28.88508741 25.70445952 26.92371429 23.75390625 24.9597168 C21.2481437 22.43690616 18.73578948 19.92078755 16.2211113 17.40686703 C13.82689608 15.01231548 11.43694411 12.61353397 9.046875 10.21484375 C7.68764923 8.85394875 7.68764923 8.85394875 6.30096436 7.46556091 C5.47300354 6.63122025 4.64504272 5.79687958 3.79199219 4.93725586 C3.05793152 4.19938339 2.32387085 3.46151093 1.56756592 2.70127869 C0 1 0 1 0 0 Z " fill="#2089A5" transform="translate(128,180)"/>
<path d="M0 0 C0 3 0 3 -1.57299805 4.91357422 C-2.29527588 5.6201416 -3.01755371 6.32670898 -3.76171875 7.0546875 C-4.55126953 7.83457031 -5.34082031 8.61445312 -6.15429688 9.41796875 C-6.99025391 10.22878906 -7.82621094 11.03960937 -8.6875 11.875 C-9.91243164 13.07962891 -9.91243164 13.07962891 -11.16210938 14.30859375 C-13.43641616 16.54422811 -15.71755914 18.77267642 -18 21 C-20.44182056 23.39250192 -22.78517698 25.72073007 -24.875 28.4375 C-27.08901259 31.10733871 -29.44395438 33.18856599 -32.12109375 35.375 C-34.53886443 37.46604491 -36.74618065 39.73298595 -39 42 C-56 59 -73 76 -90 93 C-89.0409375 93.28746094 -88.081875 93.57492188 -87.09375 93.87109375 C-84 95 -84 95 -82.5 97.0625 C-81.06342695 99.33800827 -81.06342695 99.33800827 -77.8125 99.75 C-76.884375 99.8325 -75.95625 99.915 -75 100 C-80.55150497 106.78517275 -86.76836447 112.8492948 -93 119 C-94.00104877 119.99895013 -95.00171673 120.99828621 -96 122 C-96.33 121.34 -96.66 120.68 -97 120 C-97.66 120 -98.32 120 -99 120 C-99.0825 118.88625 -99.165 117.7725 -99.25 116.625 C-99.57873787 112.94246056 -99.57873787 112.94246056 -102.0625 111.5625 C-103.0215625 111.2840625 -103.0215625 111.2840625 -104 111 C-104 110.34 -104 109.68 -104 109 C-108.30472371 110.74737199 -109.4626022 113.15211009 -111.55859375 117.125 C-113 119 -113 119 -115.25878906 119.80419922 C-118.70963842 121.30956617 -120.6647333 123.3255181 -123.30078125 126.0078125 C-123.7820195 126.49329559 -124.26325775 126.97877869 -124.75907898 127.47897339 C-126.28411586 129.02071064 -127.79834789 130.57257891 -129.3125 132.125 C-130.34891154 133.17646955 -131.38601405 134.2272585 -132.42382812 135.27734375 C-134.95726395 137.8437337 -137.48112008 140.4193129 -140 143 C-140 139.31951131 -138.8315073 138.47483174 -136.33576393 135.94852 C-135.79103117 135.41252577 -135.24629841 134.87653153 -134.68505859 134.32429504 C-134.11336126 133.75003444 -133.54166393 133.17577383 -132.95264244 132.58411139 C-131.02497736 130.65148405 -129.08674544 128.72981009 -127.1484375 126.80786133 C-125.76850062 125.42877019 -124.38922306 124.04901905 -123.01055908 122.6686554 C-119.25703777 118.91427064 -115.494315 115.1692301 -111.72992706 111.42574525 C-107.8007787 107.51530566 -103.88008129 103.59641213 -99.95849609 99.6783905 C-92.52713309 92.25636504 -85.08815338 84.84202225 -77.64643669 77.43037957 C-69.17637573 68.99380947 -60.71479576 60.54875528 -52.25393295 52.10296214 C-34.84540493 34.72582184 -17.42620324 17.35941384 0 0 Z " fill="#2C919A" transform="translate(179,30)"/>
<path d="M0 0 C-0.65846924 0.65701904 -1.31693848 1.31403809 -1.99536133 1.9909668 C-4.95680005 4.95227574 -7.90386013 7.92773801 -10.85148621 10.90278625 C-13.97105039 14.04903407 -17.09584767 17.19006198 -20.22094727 20.33081055 C-21.87246164 21.99245992 -23.52218779 23.65588844 -25.17016602 25.32104492 C-27.55020473 27.72520805 -29.93652576 30.12297293 -32.32421875 32.51953125 C-33.06379318 33.26942825 -33.80336761 34.01932526 -34.56535339 34.79194641 C-35.59200859 35.8188282 -35.59200859 35.8188282 -36.6394043 36.86645508 C-37.24165329 37.47314529 -37.84390228 38.07983551 -38.46440125 38.70491028 C-40 40 -40 40 -42 40 C-40.01396292 33.02592918 -37.6833397 26.25927039 -35.0625 19.5 C-34.72798828 18.62730469 -34.39347656 17.75460938 -34.04882812 16.85546875 C-31.75244103 10.88220753 -29.39027985 4.93624684 -27 -1 C-23.06328959 -1.22561734 -19.12571465 -1.42752827 -15.1875 -1.625 C-14.06794922 -1.68945312 -12.94839844 -1.75390625 -11.79492188 -1.8203125 C-10.72177734 -1.871875 -9.64863281 -1.9234375 -8.54296875 -1.9765625 C-7.55321045 -2.02893066 -6.56345215 -2.08129883 -5.54370117 -2.13525391 C-3 -2 -3 -2 0 0 Z " fill="#1F8AA6" transform="translate(263,181)"/>
<path d="M0 0 C4.53786224 2.26893112 5.94678157 4.09866534 9 8 C7 7 5 6 3 5 C3 41.63 3 78.26 3 116 C28.62488837 115.96038465 28.62488837 115.96038465 54.24975586 115.90991211 C59.19641113 115.90539551 59.19641113 115.90539551 61.5092926 115.90455627 C63.13091811 115.90301677 64.75254245 115.89949172 66.37416077 115.89442444 C68.82490032 115.88714657 71.27556968 115.88609259 73.72631836 115.88647461 C74.45345252 115.8828765 75.18058668 115.87927839 75.92975521 115.87557125 C80.88597366 115.88597366 80.88597366 115.88597366 82 117 C84.69235776 117.23678716 87.36498156 117.42198025 90.0625 117.5625 C91.20041992 117.62727539 91.20041992 117.62727539 92.36132812 117.69335938 C94.24065438 117.79973633 96.12030244 117.90039934 98 118 C98 118.33 98 118.66 98 119 C65.66 119 33.32 119 0 119 C0 79.73 0 40.46 0 0 Z " fill="#1E74AC" transform="translate(79,193)"/>
<path d="M0 0 C5.89837965 5.05575398 11.44703234 10.26083279 16.92749023 15.7421875 C18.45344834 17.26592513 19.98728145 18.7814443 21.52148438 20.296875 C22.49267457 21.2651367 23.46339558 22.23386929 24.43359375 23.203125 C25.31072021 24.07614258 26.18784668 24.94916016 27.09155273 25.84863281 C29 28 29 28 29 30 C19.43 30 9.86 30 0 30 C0 20.1 0 10.2 0 0 Z " fill="#2390A2" transform="translate(237,137)"/>
<path d="M0 0 C0 9.57 0 19.14 0 29 C-9.24 29 -18.48 29 -28 29 C-28 26 -28 26 -26.37939453 24.00708008 C-25.26733643 22.89949341 -25.26733643 22.89949341 -24.1328125 21.76953125 C-23.32972656 20.96708984 -22.52664062 20.16464844 -21.69921875 19.33789062 C-20.84972656 18.50451172 -20.00023437 17.67113281 -19.125 16.8125 C-18.28324219 15.96751953 -17.44148437 15.12253906 -16.57421875 14.25195312 C-10.26675999 8 -10.26675999 8 -8 8 C-7.7525 7.4225 -7.505 6.845 -7.25 6.25 C-5.58207452 3.24773413 -3.67725381 0 0 0 Z " fill="#2191A4" transform="translate(157,138)"/>
<path d="M0 0 C17.16 0 34.32 0 52 0 C52 12.21 52 24.42 52 37 C34.84 37 17.68 37 0 37 C0 24.79 0 12.58 0 0 Z M2 1 C2 12.22 2 23.44 2 35 C8.67525404 35.02290404 15.3503728 35.04283264 22.02563477 35.05493164 C24.29842591 35.05997325 26.5712138 35.06680637 28.84399414 35.07543945 C32.10303551 35.08751261 35.36203417 35.09322987 38.62109375 35.09765625 C39.64400009 35.10281754 40.66690643 35.10797882 41.72080994 35.11329651 C42.66170975 35.11337204 43.60260956 35.11344757 44.57202148 35.11352539 C45.40475082 35.115746 46.23748016 35.11796661 47.09544373 35.12025452 C49.01033274 35.21004832 49.01033274 35.21004832 50 34 C50.08767112 31.92737924 50.10695873 29.85179706 50.09765625 27.77734375 C50.09443359 26.51728516 50.09121094 25.25722656 50.08789062 23.95898438 C50.07953403 22.61848891 50.07106907 21.27799412 50.0625 19.9375 C50.0574866 18.59310058 50.05292342 17.2486994 50.04882812 15.90429688 C50.03699488 12.60282059 50.02050971 9.30143197 50 6 C49.34 6 48.68 6 48 6 C48 5.34 48 4.68 48 4 C48.66 4 49.32 4 50 4 C50 3.01 50 2.02 50 1 C34.16 1 18.32 1 2 1 Z " fill="#378893" transform="translate(171,130)"/>
<path d="M0 0 C1.98 0.99 1.98 0.99 4 2 C3.01 2.33 2.02 2.66 1 3 C1 40.95 1 78.9 1 118 C33.01 118 65.02 118 98 118 C98 118.33 98 118.66 98 119 C65.66 119 33.32 119 0 119 C0 79.73 0 40.46 0 0 Z " fill="#347294" transform="translate(79,193)"/>
<path d="M0 0 C6.74080425 5.52650334 12.8071129 11.69449559 18.9375 17.875 C20.01343727 18.95596274 21.08960731 20.03669383 22.16601562 21.1171875 C24.78003292 23.74212641 27.39088596 26.37018628 30 29 C27 29 27 29 24.66015625 26.8828125 C23.80292969 25.97273438 22.94570312 25.06265625 22.0625 24.125 C19.14132896 21.03199537 16.82867584 18.80915452 13 17 C12.505 16.154375 12.01 15.30875 11.5 14.4375 C10.26336768 11.87729764 10.26336768 11.87729764 8.0625 11.25 C7.381875 11.1675 6.70125 11.085 6 11 C5.34 10.814375 4.68 10.62875 4 10.4375 C-0.21831128 9.51474441 -3.24609519 10.07492061 -7 12 C-7.474375 12.680625 -7.94875 13.36125 -8.4375 14.0625 C-10 16 -10 16 -13.1875 16.75 C-14.5796875 16.87375 -14.5796875 16.87375 -16 17 C-11.01595832 10.96668638 -5.58084697 5.4815829 0 0 Z " fill="#2CA595" transform="translate(196,13)"/>
<path d="M0 0 C1.32 0 2.64 0 4 0 C4.66 0.99 5.32 1.98 6 3 C6.66 2.67 7.32 2.34 8 2 C9.72082924 2 11.34228586 2.5722028 13 3 C9.88307091 6.17469938 6.75516454 9.33835392 3.625 12.5 C2.73554688 13.40621094 1.84609375 14.31242188 0.9296875 15.24609375 C0.07890625 16.10332031 -0.771875 16.96054688 -1.6484375 17.84375 C-2.43395996 18.63974609 -3.21948242 19.43574219 -4.02880859 20.25585938 C-6 22 -6 22 -8 22 C-5.92957946 14.39162534 -3.14169523 7.2271408 0 0 Z " fill="#1E88A6" transform="translate(229,199)"/>
<path d="M0 0 C0.81013046 -0.00058411 1.62026093 -0.00116821 2.4549408 -0.00177002 C5.12827652 0.00101304 7.80049228 0.03211467 10.47363281 0.06347656 C12.32879019 0.07093818 14.18395546 0.07663149 16.03912354 0.08062744 C20.91865858 0.09589001 25.79771634 0.1351772 30.67706299 0.17944336 C35.65736433 0.22038262 40.6377429 0.23863558 45.61816406 0.25878906 C55.38790486 0.30167084 65.15729162 0.36992974 74.92675781 0.45410156 C75.42175781 1.93910156 75.42175781 1.93910156 75.92675781 3.45410156 C75.26675781 3.45410156 74.60675781 3.45410156 73.92675781 3.45410156 C73.92675781 2.79410156 73.92675781 2.13410156 73.92675781 1.45410156 C63.69415116 1.14200942 53.46515878 0.93674191 43.22792339 0.86082172 C38.47150357 0.82233854 33.72116727 0.74968663 28.96704102 0.59350586 C4.3951411 -1.04753495 4.3951411 -1.04753495 -16.71366882 9.36991882 C-20.20070299 13.1746841 -23.32036989 17.08711931 -26.07324219 21.45410156 C-26.40324219 20.79410156 -26.73324219 20.13410156 -27.07324219 19.45410156 C-25.82324219 16.82910156 -25.82324219 16.82910156 -24.07324219 14.45410156 C-23.08324219 14.45410156 -22.09324219 14.45410156 -21.07324219 14.45410156 C-21.07324219 13.46410156 -21.07324219 12.47410156 -21.07324219 11.45410156 C-20.08324219 11.45410156 -19.09324219 11.45410156 -18.07324219 11.45410156 C-18.07324219 10.79410156 -18.07324219 10.13410156 -18.07324219 9.45410156 C-17.41324219 9.45410156 -16.75324219 9.45410156 -16.07324219 9.45410156 C-15.97011719 8.81472656 -15.86699219 8.17535156 -15.76074219 7.51660156 C-15.53386719 6.83597656 -15.30699219 6.15535156 -15.07324219 5.45410156 C-14.08324219 5.12410156 -13.09324219 4.79410156 -12.07324219 4.45410156 C-11.51787781 3.78284241 -10.96251343 3.11158325 -10.39031982 2.41998291 C-7.1163608 -0.35774662 -4.09526653 -0.07731668 0 0 Z " fill="#47898D" transform="translate(163.0732421875,117.5458984375)"/>
<path d="M0 0 C5 1 5 1 6.8125 3.0625 C7.204375 3.701875 7.59625 4.34125 8 5 C6 4 4 3 2 2 C1.67 39.29 1.34 76.58 1 115 C0.67 115 0.34 115 0 115 C0 77.05 0 39.1 0 0 Z " fill="#23759E" transform="translate(80,196)"/>
<path d="M0 0 C0.33 0.99 0.66 1.98 1 3 C39.28 2.67 77.56 2.34 117 2 C117 2.66 117 3.32 117 4 C77.73 4 38.46 4 -2 4 C-1.34 2.68 -0.68 1.36 0 0 Z " fill="#34769E" transform="translate(198,308)"/>
<path d="M0 0 C1.12588014 0.95729916 2.2506715 1.91587895 3.375 2.875 C4.00148438 3.40867188 4.62796875 3.94234375 5.2734375 4.4921875 C6.55836651 5.61432007 7.79371975 6.79371975 9 8 C9 11 9 11 7.49609375 12.61328125 C6.81675781 13.17402344 6.13742187 13.73476562 5.4375 14.3125 C4.35275391 15.22128906 4.35275391 15.22128906 3.24609375 16.1484375 C2.50488281 16.75945312 1.76367188 17.37046875 1 18 C-0.3355096 19.14329607 -1.66904503 20.28890491 -3 21.4375 C-3.99 22.283125 -4.98 23.12875 -6 24 C-5.67 22.68 -5.34 21.36 -5 20 C-4.34 20 -3.68 20 -3 20 C-2.896875 19.030625 -2.79375 18.06125 -2.6875 17.0625 C-2.16085937 13.19522854 -0.92873364 9.74255522 0.4765625 6.11328125 C1.07441742 3.69955353 0.78859496 2.32898378 0 0 Z " fill="#2B8BA0" transform="translate(306,164)"/>
<path d="M0 0 C-1.34386693 7.33018323 -3.40448756 14.42778735 -7 21 C-7.99 21.33 -8.98 21.66 -10 22 C-10.66 18.7 -11.32 15.4 -12 12 C-11.34 12 -10.68 12 -10 12 C-9.34 10.68 -8.68 9.36 -8 8 C-7.01 8 -6.02 8 -5 8 C-5.33 7.34 -5.66 6.68 -6 6 C-5.1875 3.4375 -5.1875 3.4375 -4 1 C-2 0 -2 0 0 0 Z " fill="#247DA3" transform="translate(205,226)"/>
<path d="M0 0 C2.19798983 0.98530579 3.82052548 1.81304737 5.5 3.5625 C7.31817764 5.30492024 8.5472132 5.55403876 11 6 C11.70125 6.20625 12.4025 6.4125 13.125 6.625 C15.08039699 7.2156101 15.08039699 7.2156101 17 6 C19.475 13.425 19.475 13.425 22 21 C18.33015916 19.16507958 16.49823436 17.74454315 13.671875 14.90234375 C12.87265625 14.10119141 12.0734375 13.30003906 11.25 12.47460938 C10.425 11.63736328 9.6 10.80011719 8.75 9.9375 C7.90953125 9.09638672 7.0690625 8.25527344 6.203125 7.38867188 C0 1.14023184 0 1.14023184 0 0 Z " fill="#2E7C8F" transform="translate(152,204)"/>
<path d="M0 0 C14.19 0 28.38 0 43 0 C43 0.33 43 0.66 43 1 C29.8 1.66 16.6 2.32 3 3 C2.0699111 5.7902667 1.81301231 7.76529542 1.68359375 10.66796875 C1.64169922 11.56064453 1.59980469 12.45332031 1.55664062 13.37304688 C1.51732422 14.30181641 1.47800781 15.23058594 1.4375 16.1875 C1.39431641 17.12787109 1.35113281 18.06824219 1.30664062 19.03710938 C1.20061335 21.35792854 1.09854971 23.67885325 1 26 C0.67 26 0.34 26 0 26 C0 17.42 0 8.84 0 0 Z " fill="#3C9C94" transform="translate(250,38)"/>
<path d="M0 0 C0 3 0 3 -1.42578125 4.61328125 C-2.04839844 5.17402344 -2.67101562 5.73476562 -3.3125 6.3125 C-5.80036648 8.66602169 -7.04791337 10.09965981 -8.5625 13.25 C-10 16 -10 16 -12.75244141 17.3527832 C-16.35346383 19.17928285 -18.57459783 21.23179662 -21.3984375 24.10546875 C-21.8782608 24.5895369 -22.35808411 25.07360504 -22.85244751 25.57234192 C-24.36722348 27.10376667 -25.87116699 28.64533589 -27.375 30.1875 C-28.40685086 31.23441556 -29.43939667 32.28064664 -30.47265625 33.32617188 C-32.9898519 35.87625299 -35.49744903 38.43553614 -38 41 C-38 38 -38 38 -36.55737305 36.1966095 C-35.88230713 35.52820541 -35.20724121 34.85980133 -34.51171875 34.17114258 C-33.37053589 33.03029961 -33.37053589 33.03029961 -32.20629883 31.8664093 C-31.37509521 31.05068954 -30.5438916 30.23496979 -29.6875 29.39453125 C-28.84405029 28.55532639 -28.00060059 27.71612152 -27.1315918 26.85148621 C-24.42799842 24.1647262 -21.71417532 21.48856565 -19 18.8125 C-17.1685891 16.99612983 -15.33785091 15.1790811 -13.5078125 13.36132812 C-9.01299342 8.8996402 -4.50972499 4.44661823 0 0 Z " fill="#378595" transform="translate(77,132)"/>
<path d="M0 0 C0.78375 0.33 1.5675 0.66 2.375 1 C4.84332497 2.11866511 4.84332497 2.11866511 7 2 C7 1.34 7 0.68 7 0 C8.32 0 9.64 0 11 0 C11.33 0.99 11.66 1.98 12 3 C15.67986596 3.204437 17.78360346 2.74565111 21 1 C20.04367001 2.29315061 19.08486149 3.58446853 18.125 4.875 C17.59132812 5.59429687 17.05765625 6.31359375 16.5078125 7.0546875 C15 9 15 9 13 11 C11 10.875 11 10.875 9 10 C8.3162955 8.67532254 7.65035814 7.34136367 7 6 C5.67532254 5.3162955 4.34136367 4.65035814 3 4 C1.25 1.875 1.25 1.875 0 0 Z " fill="#247BA2" transform="translate(165,259)"/>
<path d="M0 0 C0.66 1.32 1.32 2.64 2 4 C2.66 4.66 3.32 5.32 4 6 C-0.75 8 -0.75 8 -3 8 C-3.33 8.99 -3.66 9.98 -4 11 C-7.0625 12.1875 -7.0625 12.1875 -10 13 C-10 13.99 -10 14.98 -10 16 C-11.96466413 17.06775224 -13.96855359 18.06553465 -16 19 C-16.66 18.67 -17.32 18.34 -18 18 C-12.06 12.06 -6.12 6.12 0 0 Z " fill="#2077A8" transform="translate(219,287)"/>
<path d="M0 0 C9.57 0 19.14 0 29 0 C29.99 2.31 30.98 4.62 32 7 C31.34 7 30.68 7 30 7 C29.34 5.35 28.68 3.7 28 2 C20.74 2 13.48 2 6 2 C8.24039492 5.73399154 9.69735296 7.9351887 12.6875 10.8125 C13.31011719 11.41707031 13.93273437 12.02164063 14.57421875 12.64453125 C15.04472656 13.09183594 15.51523438 13.53914062 16 14 C15.67 14.66 15.34 15.32 15 16 C12.49599357 13.5248518 9.99748094 11.04423106 7.5 8.5625 C6.78457031 7.85544922 6.06914062 7.14839844 5.33203125 6.41992188 C4.65527344 5.74638672 3.97851562 5.07285156 3.28125 4.37890625 C2.65283203 3.7557251 2.02441406 3.13254395 1.37695312 2.49047852 C0 1 0 1 0 0 Z " fill="#2F7F95" transform="translate(128,180)"/>
<path d="M0 0 C0.66 0.99 1.32 1.98 2 3 C1.01 3.33 0.02 3.66 -1 4 C-1.33 4.99 -1.66 5.98 -2 7 C5.92 7 13.84 7 22 7 C22 7.66 22 8.32 22 9 C12.76 9 3.52 9 -6 9 C-6 6 -6 6 -4.6875 4.39453125 C-4.130625 3.87246094 -3.57375 3.35039062 -3 2.8125 C-2.443125 2.28269531 -1.88625 1.75289062 -1.3125 1.20703125 C-0.6628125 0.60955078 -0.6628125 0.60955078 0 0 Z " fill="#378792" transform="translate(135,158)"/>
<path d="M0 0 C1.94566951 3.47547073 2.07637127 5.12506344 1 9 C1.99 9.66 2.98 10.32 4 11 C2.54782324 12.50596108 1.08807139 14.00462104 -0.375 15.5 C-1.18710938 16.3353125 -1.99921875 17.170625 -2.8359375 18.03125 C-5 20 -5 20 -7 20 C-5.07443364 13.14381674 -2.7527517 6.56747868 0 0 Z " fill="#2C8198" transform="translate(228,201)"/>
<path d="M0 0 C-6 6 -6 6 -12 12 C-12.33 10.68 -12.66 9.36 -13 8 C-12.50628906 7.66226563 -12.01257813 7.32453125 -11.50390625 6.9765625 C-10.86324219 6.53054687 -10.22257812 6.08453125 -9.5625 5.625 C-8.92441406 5.18414062 -8.28632813 4.74328125 -7.62890625 4.2890625 C-5.86259072 3.07839147 -5.86259072 3.07839147 -5 1 C-12.26 1 -19.52 1 -27 1 C-27 0.34 -27 -0.32 -27 -1 C-23.06328959 -1.22561734 -19.12571465 -1.42752827 -15.1875 -1.625 C-14.06794922 -1.68945312 -12.94839844 -1.75390625 -11.79492188 -1.8203125 C-10.72177734 -1.871875 -9.64863281 -1.9234375 -8.54296875 -1.9765625 C-7.55321045 -2.02893066 -6.56345215 -2.08129883 -5.54370117 -2.13525391 C-3 -2 -3 -2 0 0 Z " fill="#317F92" transform="translate(263,181)"/>
<path d="M0 0 C1.98 0.99 1.98 0.99 4 2 C3.01 2.33 2.02 2.66 1 3 C1 22.8 1 42.6 1 63 C0.67 63 0.34 63 0 63 C0 42.21 0 21.42 0 0 Z " fill="#417E91" transform="translate(79,193)"/>
<path d="M0 0 C4.52134218 3.71754802 8.77415761 7.64047364 12.9375 11.75 C13.68253784 12.4757019 13.68253784 12.4757019 14.44262695 13.21606445 C15.66847329 14.43848364 16.83934827 15.71551743 18 17 C18 17.66 18 18.32 18 19 C8.43 19 -1.14 19 -11 19 C-11 18.67 -11 18.34 -11 18 C-2.42 18 6.16 18 15 18 C9.3392384 10.51185551 9.3392384 10.51185551 6 9 C6 8.34 6 7.68 6 7 C5.01 6.67 4.02 6.34 3 6 C0 2.55555556 0 2.55555556 0 0 Z " fill="#3E8591" transform="translate(248,148)"/>
<path d="M0 0 C2 1 2 1 2 1 Z M-2 1 C-1.34 1.33 -0.68 1.66 0 2 C-0.350625 2.9075 -0.70125 3.815 -1.0625 4.75 C-1.96468779 7.87758436 -2.13381507 9.05208081 -1 12 C-2.093125 11.9175 -3.18625 11.835 -4.3125 11.75 C-8.03442858 11.58896039 -8.03442858 11.58896039 -9.9375 14 C-10.288125 14.66 -10.63875 15.32 -11 16 C-11.99 15.67 -12.98 15.34 -14 15 C-10.34161026 9.88863277 -6.55388068 5.33702922 -2 1 Z " fill="#1C88AB" transform="translate(305,204)"/>
<path d="M0 0 C6.12887057 5.08637407 11.79131883 10.57383823 17.4375 16.1875 C18.82098633 17.54004883 18.82098633 17.54004883 20.23242188 18.91992188 C21.10318359 19.78552734 21.97394531 20.65113281 22.87109375 21.54296875 C24.06109985 22.7189563 24.06109985 22.7189563 25.27514648 23.91870117 C27 26 27 26 27 29 C27.99 29 28.98 29 30 29 C29.67 29.66 29.34 30.32 29 31 C25.18262563 29.72754188 24.9716186 28.40496571 23 25 C21.67118032 23.49440461 20.29273623 22.03155754 18.875 20.609375 C18.08609375 19.81789063 17.2971875 19.02640625 16.484375 18.2109375 C15.66453125 17.39882812 14.8446875 16.58671875 14 15.75 C13.18015625 14.92242187 12.3603125 14.09484375 11.515625 13.2421875 C10.33226562 12.06269531 10.33226562 12.06269531 9.125 10.859375 C8.40570313 10.14233398 7.68640625 9.42529297 6.9453125 8.68652344 C5.00885739 6.79044652 5.00885739 6.79044652 2 6 C0.8125 2.9375 0.8125 2.9375 0 0 Z " fill="#3C8D97" transform="translate(250,108)"/>
<path d="M0 0 C1.98 0.66 3.96 1.32 6 2 C1.5906781 7.29118628 -3.08158172 12.18127939 -8 17 C-8.66 17.66 -9.32 18.32 -10 19 C-10.66 17.68 -11.32 16.36 -12 15 C-12.66 15 -13.32 15 -14 15 C-13.67 14.34 -13.34 13.68 -13 13 C-11 13 -9 13 -7 13 C-6.67 12.01 -6.34 11.02 -6 10 C-5.34 10 -4.68 10 -4 10 C-3.67 8.68 -3.34 7.36 -3 6 C-2.01 6.33 -1.02 6.66 0 7 C0 6.34 0 5.68 0 5 C0.66 5 1.32 5 2 5 C2 4.34 2 3.68 2 3 C1.34 3 0.68 3 0 3 C0 2.01 0 1.02 0 0 Z " fill="#2C8896" transform="translate(112,155)"/>
<path d="M0 0 C0.99 0.33 1.98 0.66 3 1 C-0.25407496 4.27871843 -3.51136353 7.55419645 -6.77172852 10.82666016 C-7.88135208 11.94132524 -8.9900782 13.05688443 -10.09790039 14.17333984 C-11.68663505 15.77414804 -13.27852617 17.37175612 -14.87109375 18.96875 C-15.36902939 19.47184692 -15.86696503 19.97494385 -16.37998962 20.49328613 C-17.56782964 21.68132102 -18.78137878 22.84356015 -20 24 C-20.33 24 -20.66 24 -21 24 C-21.36352041 19.51658163 -21.36352041 19.51658163 -19.8125 17.3125 C-18 16 -18 16 -15.5625 15.125 C-12.2827225 13.68509768 -11.19878866 11.827014 -9 9 C-6.94403079 7.12947115 -4.83865094 5.3343814 -2.70703125 3.55078125 C-0.89605411 2.09320225 -0.89605411 2.09320225 0 0 Z " fill="#38988B" transform="translate(189,40)"/>
<path d="M0 0 C6.55377097 5.38640924 12.47246635 11.35885127 18.4375 17.375 C19.46525983 18.40778595 20.49325285 19.44033991 21.52148438 20.47265625 C24.01701598 22.97910287 26.50938082 25.4886708 29 28 C24.07444903 28 21.39660217 24.32153914 18 21 C16.15382001 18.95669196 14.36536305 16.87493103 12.5859375 14.7734375 C10.6023796 12.55537029 8.32629086 10.84910299 6 9 C0 2.7 0 2.7 0 0 Z " fill="#358294" transform="translate(103,174)"/>
<path d="M0 0 C0.99 0.33 1.98 0.66 3 1 C3 1.99 3 2.98 3 4 C2.34 4.45375 1.68 4.9075 1 5.375 C0.01 6.179375 0.01 6.179375 -1 7 C-1.33425735 9.62625139 -1.33425735 9.62625139 -1 12 C-3.375 11.6875 -3.375 11.6875 -6 11 C-6.66 10.01 -7.32 9.02 -8 8 C-6.71034824 6.62437146 -5.37310707 5.29233607 -4 4 C-3.34 4 -2.68 4 -2 4 C-2 3.34 -2 2.68 -2 2 C-1.34 2 -0.68 2 0 2 C0 1.34 0 0.68 0 0 Z " fill="#2077AB" transform="translate(188,276)"/>
<path d="M0 0 C-0.433125 0.8353125 -0.433125 0.8353125 -0.875 1.6875 C-2.0413253 4.08494645 -3.0339881 6.51596939 -4 9 C-4.66 9 -5.32 9 -6 9 C-6.33 8.67 -6.66 8.34 -7 8 C-7.45375 8.495 -7.9075 8.99 -8.375 9.5 C-10 11 -10 11 -12 11 C-11.67 11.99 -11.34 12.98 -11 14 C-11.99 14.33 -12.98 14.66 -14 15 C-14.33 15.66 -14.66 16.32 -15 17 C-15.66503906 15.20214844 -15.66503906 15.20214844 -16 13 C-14.96777344 11.35253906 -14.96777344 11.35253906 -13.359375 9.765625 C-12.78316406 9.19199219 -12.20695312 8.61835938 -11.61328125 8.02734375 C-10.99839844 7.44082031 -10.38351562 6.85429687 -9.75 6.25 C-9.15058594 5.64800781 -8.55117188 5.04601562 -7.93359375 4.42578125 C-3.40745465 0 -3.40745465 0 0 0 Z " fill="#2D90A3" transform="translate(292,175)"/>
<path d="M0 0 C0.66 0.33 1.32 0.66 2 1 C-5.26 8.26 -12.52 15.52 -20 23 C-20 20 -20 20 -17.625 17.5625 C-16.75875 16.716875 -15.8925 15.87125 -15 15 C-14.62875 14.2575 -14.2575 13.515 -13.875 12.75 C-13 11 -13 11 -10 10 C-9.67 9.01 -9.34 8.02 -9 7 C-7.68352881 6.30062468 -6.34977849 5.63270867 -5 5 C-4.67 4.34 -4.34 3.68 -4 3 C-3.34 3 -2.68 3 -2 3 C-2 2.34 -2 1.68 -2 1 C-1.34 0.67 -0.68 0.34 0 0 Z " fill="#307696" transform="translate(266,262)"/>
<path d="M0 0 C0 3 0 3 -1.65234375 4.99291992 C-2.40644531 5.73131104 -3.16054687 6.46970215 -3.9375 7.23046875 C-4.74960938 8.03291016 -5.56171875 8.83535156 -6.3984375 9.66210938 C-7.25695312 10.49548828 -8.11546875 11.32886719 -9 12.1875 C-10.28777344 13.4549707 -10.28777344 13.4549707 -11.6015625 14.74804688 C-13.7278365 16.83888298 -15.86078464 18.92241983 -18 21 C-18.33 20.34 -18.66 19.68 -19 19 C-17.75 16.375 -17.75 16.375 -16 14 C-15.01 14 -14.02 14 -13 14 C-13 13.01 -13 12.02 -13 11 C-12.01 11 -11.02 11 -10 11 C-10 10.34 -10 9.68 -10 9 C-9.34 9 -8.68 9 -8 9 C-7.896875 8.360625 -7.79375 7.72125 -7.6875 7.0625 C-7.460625 6.381875 -7.23375 5.70125 -7 5 C-6.01 4.67 -5.02 4.34 -4 4 C-2.62804426 2.70644173 -1.28817344 1.37701298 0 0 Z " fill="#338C91" transform="translate(155,118)"/>
<path d="M0 0 C0.66 0.33 1.32 0.66 2 1 C-3.61 6.61 -9.22 12.22 -15 18 C-15.33 16.68 -15.66 15.36 -16 14 C-15.01 14 -14.02 14 -13 14 C-13 13.34 -13 12.68 -13 12 C-12.34 12 -11.68 12 -11 12 C-11 10.68 -11 9.36 -11 8 C-10.34 8 -9.68 8 -9 8 C-9.33 7.01 -9.66 6.02 -10 5 C-9.34 4.67 -8.68 4.34 -8 4 C-8 4.99 -8 5.98 -8 7 C-7.236875 6.21625 -6.47375 5.4325 -5.6875 4.625 C-3 2 -3 2 0 0 Z " fill="#318B93" transform="translate(134,139)"/>
<path d="M0 0 C0.6875 1.8125 0.6875 1.8125 1 4 C-0.46610955 6.00625517 -1.72697874 6.8805532 -4 7.875 C-7.24286295 9.69911041 -8.3835558 12.76711159 -10 16 C-12.3140622 16.73075648 -14.64828869 17.40138258 -17 18 C-13.49925018 13.82556637 -10.02049157 9.6854506 -6 6 C-5.34 6 -4.68 6 -4 6 C-3.566875 5.071875 -3.566875 5.071875 -3.125 4.125 C-2 2 -2 2 0 0 Z " fill="#338A94" transform="translate(153,140)"/>
<path d="M0 0 C0.66 0.99 1.32 1.98 2 3 C1.34 3 0.68 3 0 3 C-0.66 4.65 -1.32 6.3 -2 8 C-2.99 7.67 -3.98 7.34 -5 7 C-4.67 8.32 -4.34 9.64 -4 11 C-6.64738916 12.4606285 -7.89448334 13 -11 13 C-11 13.66 -11 14.32 -11 15 C-10.34 15.33 -9.68 15.66 -9 16 C-10.32 16 -11.64 16 -13 16 C-12.42308522 12.83145253 -11.58353113 11.21773541 -9.27734375 8.984375 C-8.73916016 8.45585937 -8.20097656 7.92734375 -7.64648438 7.3828125 C-7.08251953 6.84398437 -6.51855469 6.30515625 -5.9375 5.75 C-5.36966797 5.19570312 -4.80183594 4.64140625 -4.21679688 4.0703125 C-2.81787531 2.70665786 -1.40980886 1.35239583 0 0 Z " fill="#2F919B" transform="translate(128,123)"/>
<path d="M0 0 C0.8125 1.6875 0.8125 1.6875 1 4 C-1.1613627 6.51185394 -3.01962439 8.50981219 -6 10 C-7.0409066 11.64142963 -8.04504326 13.30712215 -9 15 C-10.32 14.67 -11.64 14.34 -13 14 C-12.34 13.67 -11.68 13.34 -11 13 C-11 12.34 -11 11.68 -11 11 C-10.34 11 -9.68 11 -9 11 C-8.731875 10.360625 -8.46375 9.72125 -8.1875 9.0625 C-7 7 -7 7 -4 6 C-4 5.34 -4 4.68 -4 4 C-3.34 4 -2.68 4 -2 4 C-1.34 2.68 -0.68 1.36 0 0 Z " fill="#2177A5" transform="translate(204,260)"/>
<path d="M0 0 C7.15801225 5.82628904 13.52591766 12.4382985 20 19 C19.67 19.99 19.34 20.98 19 22 C18.1028125 20.7934375 18.1028125 20.7934375 17.1875 19.5625 C15.19052724 16.77672016 15.19052724 16.77672016 12 16 C12 15.01 12 14.02 12 13 C11.34 13 10.68 13 10 13 C9.566875 12.401875 9.13375 11.80375 8.6875 11.1875 C7.10969225 8.83394987 7.10969225 8.83394987 4.4375 7.625 C1.27323364 5.51548909 0.88330662 3.61352709 0 0 Z " fill="#2F7B98" transform="translate(167,238)"/>
<path d="M0 0 C5.43733055 4.52991796 10.46458931 9.34294216 15.4375 14.375 C16.16904297 15.11105469 16.90058594 15.84710938 17.65429688 16.60546875 C19.43852723 18.40136074 21.22036124 20.19955985 23 22 C20 22 20 22 17.66015625 19.8828125 C16.80292969 18.97273438 15.94570312 18.06265625 15.0625 17.125 C12.14558265 14.03649927 9.83498457 11.79134148 6 10 C4.95107762 8.36368108 3.95093297 6.69514137 3 5 C2.443125 4.443125 1.88625 3.88625 1.3125 3.3125 C0.879375 2.879375 0.44625 2.44625 0 2 C0 1.34 0 0.68 0 0 Z " fill="#3F9B8F" transform="translate(203,20)"/>
<path d="M0 0 C2.31 1.98 4.62 3.96 7 6 C5 7 5 7 2.9375 6.75 C2.298125 6.5025 1.65875 6.255 1 6 C0.67 5.01 0.34 4.02 0 3 C-0.75925781 3.75925781 -1.51851562 4.51851562 -2.30078125 5.30078125 C-6.20052083 9.20052083 -10.10026042 13.10026042 -14 17 C-14.66 16.67 -15.32 16.34 -16 16 C-10.72 10.72 -5.44 5.44 0 0 Z " fill="#40978B" transform="translate(196,13)"/>
<path d="M0 0 C0.33 0.66 0.66 1.32 1 2 C0.67 2.66 0.34 3.32 0 4 C0.66 4.33 1.32 4.66 2 5 C-1.29094216 8.66704983 -3.16621398 10.23677063 -8 11 C-9.79385992 12.4579186 -9.79385992 12.4579186 -11 14 C-11.66 13.67 -12.32 13.34 -13 13 C-8.71 8.71 -4.42 4.42 0 0 Z " fill="#27789E" transform="translate(243,263)"/>
<path d="M0 0 C2 2 2 2 2 4 C3.95633975 6.41121859 3.95633975 6.41121859 7.625 6.125 C8.73875 6.08375 9.8525 6.0425 11 6 C10.67 6.99 10.34 7.98 10 9 C10.27571139 11.00875442 10.60235737 13.01178687 11 15 C6.08064098 10.88380164 1.47352044 6.59589638 -3 2 C-2.01 1.34 -1.02 0.68 0 0 Z " fill="#2F829B" transform="translate(122,212)"/>
<path d="M0 0 C2.31 0 4.62 0 7 0 C-2.38709677 11.19354839 -2.38709677 11.19354839 -6 13 C-6.33 12.01 -6.66 11.02 -7 10 C-6.34 10 -5.68 10 -5 10 C-4.67 9.34 -4.34 8.68 -4 8 C-3.34 7.67 -2.68 7.34 -2 7 C-1.26924352 4.6859378 -0.59861742 2.35171131 0 0 Z " fill="#2487A2" transform="translate(281,200)"/>
<path d="M0 0 C0.91058531 3.07322544 1.08886184 5.80097361 1 9 C1.99 9.33 2.98 9.66 4 10 C4.33 10.99 4.66 11.98 5 13 C4.34 13 3.68 13 3 13 C3 12.34 3 11.68 3 11 C2.40703125 10.74476563 1.8140625 10.48953125 1.203125 10.2265625 C-1.21224538 8.88183502 -2.51211706 7.50785633 -4.25 5.375 C-4.77078125 4.74335938 -5.2915625 4.11171875 -5.828125 3.4609375 C-6.21484375 2.97882813 -6.6015625 2.49671875 -7 2 C-4.69 1.34 -2.38 0.68 0 0 Z " fill="#34919E" transform="translate(278,152)"/>
<path d="M0 0 C0.33 0 0.66 0 1 0 C1.33 14.19 1.66 28.38 2 43 C0.515 43.495 0.515 43.495 -1 44 C-0.67 29.48 -0.34 14.96 0 0 Z " fill="#319695" transform="translate(280,52)"/>
<path d="M0 0 C2.51699845 2.51699845 3.10964078 4.57554146 4 8 C3.67 9.32 3.34 10.64 3 12 C0.69 9.69 -1.62 7.38 -4 5 C-3 2 -3 2 0 0 Z " fill="#277F9E" transform="translate(168,210)"/>
<path d="M0 0 C5 1 5 1 6.8125 3.0625 C7.204375 3.701875 7.59625 4.34125 8 5 C6 4 4 3 2 2 C1.67 10.91 1.34 19.82 1 29 C0.67 29 0.34 29 0 29 C0 19.43 0 9.86 0 0 Z " fill="#288099" transform="translate(80,196)"/>
<path d="M0 0 C0 3.95880469 -1.4376079 5.07155188 -4 8 C-5 9 -6 10 -7 11 C-8.69337512 12.97900466 -10.34564731 14.98794944 -12 17 C-12.99 16.67 -13.98 16.34 -15 16 C-14.67 15.34 -14.34 14.68 -14 14 C-13.34 14 -12.68 14 -12 14 C-11.731875 13.401875 -11.46375 12.80375 -11.1875 12.1875 C-10.00082594 10.00152146 -8.90400887 8.58667406 -7 7 C-6.34 7 -5.68 7 -5 7 C-4.731875 6.401875 -4.46375 5.80375 -4.1875 5.1875 C-3.01506533 3.02775192 -1.80630718 1.64209744 0 0 Z " fill="#3173A3" transform="translate(221,243)"/>
<path d="M0 0 C0.66 0 1.32 0 2 0 C2.33 1.65 2.66 3.3 3 5 C3.66 4.67 4.32 4.34 5 4 C4.45276317 7.37462715 3.9451 9.08235 2 12 C1.34 12 0.68 12 0 12 C-0.66 8.7 -1.32 5.4 -2 2 C-1.34 2 -0.68 2 0 2 C0 1.34 0 0.68 0 0 Z " fill="#29769E" transform="translate(195,236)"/>
<path d="M0 0 C1.98 1.65 3.96 3.3 6 5 C5.01 5.33 4.02 5.66 3 6 C2.34 10.95 1.68 15.9 1 21 C0.67 21 0.34 21 0 21 C0 14.07 0 7.14 0 0 Z " fill="#2A8A98" transform="translate(237,137)"/>
<path d="M0 0 C3.3125 -0.3125 3.3125 -0.3125 7 0 C8.5625 2.1875 8.5625 2.1875 10 5 C11.010625 5.825 12.02125 6.65 13.0625 7.5 C15.98514619 9.98735846 16.96620797 11.38172788 18 15 C13.57674291 11.29890734 9.44442162 7.51103613 5.48046875 3.3203125 C4.08184049 1.77813827 4.08184049 1.77813827 2 2 C1.34 2.66 0.68 3.32 0 4 C0 2.68 0 1.36 0 0 Z " fill="#3D9B8D" transform="translate(193,35)"/>
<path d="M0 0 C1.65 0 3.3 0 5 0 C5 0.66 5 1.32 5 2 C4.34 2 3.68 2 3 2 C3 2.66 3 3.32 3 4 C0.625 6.625 0.625 6.625 -2 9 C-2.66 9 -3.32 9 -4 9 C-4 9.66 -4 10.32 -4 11 C-5.95927063 12.7143618 -7.95880212 14.38405168 -10 16 C-10.33 14.68 -10.66 13.36 -11 12 C-10.278125 11.62875 -9.55625 11.2575 -8.8125 10.875 C-4.62119301 8.08079534 -1.62278567 4.868357 0 0 Z " fill="#2B7E94" transform="translate(269,214)"/>
<path d="M0 0 C0 4.13712787 -1.91564033 5.31548895 -4.6875 8.18359375 C-6.39045431 10.16686434 -6.39045431 10.16686434 -6 14 C-6.66 14 -7.32 14 -8 14 C-8.33 14.66 -8.66 15.32 -9 16 C-9 14.68 -9 13.36 -9 12 C-10.98 12.99 -10.98 12.99 -13 14 C-8.88380164 9.08064098 -4.59589638 4.47352044 0 0 Z " fill="#2C7B9A" transform="translate(267,239)"/>
<path d="M0 0 C2 3 2 3 2 6 C1.6937566 7.33981486 1.36548445 8.67511887 1 10 C0.01 10 -0.98 10 -2 10 C-2 9.34 -2 8.68 -2 8 C-2.66 8 -3.32 8 -4 8 C-3.50168276 4.31245243 -2.89932357 2.39509338 0 0 Z " fill="#2D95A5" transform="translate(84,167)"/>
<path d="M0 0 C3.57038561 1.32236504 5.32055214 3.47077222 7.63671875 6.41796875 C9.03841511 8.04457914 10.50163252 9.30009685 12.1875 10.625 C14.7080962 12.75350346 15.8783678 13.97159306 17 17 C13.45566346 15.58226538 12.66193881 14.32387762 11 11 C10.39671875 10.71253906 9.7934375 10.42507812 9.171875 10.12890625 C6.56517355 8.77398409 5.14596104 7.16971054 3.25 4.9375 C2.63640625 4.22464844 2.0228125 3.51179687 1.390625 2.77734375 C0 1 0 1 0 0 Z " fill="#42949F" transform="translate(318,157)"/>
<path d="M0 0 C2.475 0.99 2.475 0.99 5 2 C5.04898438 2.67546875 5.09796875 3.3509375 5.1484375 4.046875 C5.22320312 4.93890625 5.29796875 5.8309375 5.375 6.75 C5.44460937 7.63171875 5.51421875 8.5134375 5.5859375 9.421875 C5.8644951 12.00919794 5.8644951 12.00919794 7.1015625 14.140625 C8 16 8 16 7 19 C1.62870159 6.51480638 1.62870159 6.51480638 0 0 Z " fill="#327B9C" transform="translate(185,218)"/>
<path d="M0 0 C1.32 0.33 2.64 0.66 4 1 C0.7 4.3 -2.6 7.6 -6 11 C-7 7 -7 7 -7 4 C-5.35 4.33 -3.7 4.66 -2 5 C-1.34 3.35 -0.68 1.7 0 0 Z " fill="#2C889E" transform="translate(296,188)"/>
<path d="M0 0 C3 1 3 1 4.45703125 3.6171875 C4.90433594 4.69226563 5.35164062 5.76734375 5.8125 6.875 C6.50279297 8.47988281 6.50279297 8.47988281 7.20703125 10.1171875 C7.46871094 11.06851563 7.73039063 12.01984375 8 13 C7.01 14.485 7.01 14.485 6 16 C4.02 10.72 2.04 5.44 0 0 Z " fill="#338395" transform="translate(172,184)"/>
<path d="M0 0 C0.33 0 0.66 0 1 0 C1 2.31 1 4.62 1 7 C1.66 7.33 2.32 7.66 3 8 C1.35 8.33 -0.3 8.66 -2 9 C-1.938125 9.78375 -1.87625 10.5675 -1.8125 11.375 C-1.874375 12.24125 -1.93625 13.1075 -2 14 C-2.99 14.66 -3.98 15.32 -5 16 C-4.34309381 12.21760329 -3.279869 8.78158474 -1.9375 5.1875 C-1.57527344 4.21167969 -1.21304688 3.23585937 -0.83984375 2.23046875 C-0.42412109 1.12638672 -0.42412109 1.12638672 0 0 Z " fill="#348699" transform="translate(235,182)"/>
<path d="M0 0 C0.33 0.66 0.66 1.32 1 2 C0.67 2.66 0.34 3.32 0 4 C0.66 4.33 1.32 4.66 2 5 C1.34 5 0.68 5 0 5 C-0.2475 5.61875 -0.495 6.2375 -0.75 6.875 C-2.20628639 9.35068687 -3.37812506 9.95125002 -6 11 C-6.375 8.875 -6.375 8.875 -6 6 C-4.20659643 3.76086748 -2.16547337 1.87545461 0 0 Z " fill="#2E8A99" transform="translate(106,145)"/>
<path d="M0 0 C0 0.66 0 1.32 0 2 C-0.66 2 -1.32 2 -2 2 C-2 2.66 -2 3.32 -2 4 C-2.66 4 -3.32 4 -4 4 C-4 4.66 -4 5.32 -4 6 C-6.375 8.625 -6.375 8.625 -9 11 C-9.66 11 -10.32 11 -11 11 C-11.33 10.01 -11.66 9.02 -12 8 C-10.33333333 6.66666667 -8.66666667 5.33333333 -7 4 C-5.6696875 2.88625 -5.6696875 2.88625 -4.3125 1.75 C-2 0 -2 0 0 0 Z " fill="#206E9A" transform="translate(193,295)"/>
<path d="M0 0 C0.33 0.99 0.66 1.98 1 3 C0.34 3.66 -0.32 4.32 -1 5 C-0.67 5.99 -0.34 6.98 0 8 C-2.97 8.66 -5.94 9.32 -9 10 C-2.97321429 2.90178571 -2.97321429 2.90178571 0 0 Z " fill="#29779E" transform="translate(229,277)"/>
<path d="M0 0 C0 3.33156142 -0.45664761 5.06028115 -2 8 C-4.625 9.8125 -4.625 9.8125 -7 11 C-7.33 10.01 -7.66 9.02 -8 8 C-6.85546875 6.2109375 -6.85546875 6.2109375 -5.1875 4.375 C-4.64480469 3.76398437 -4.10210937 3.15296875 -3.54296875 2.5234375 C-2 1 -2 1 0 0 Z " fill="#2EA496" transform="translate(182,29)"/>
<path d="M0 0 C0.99 0.33 1.98 0.66 3 1 C-0.63 4.63 -4.26 8.26 -8 12 C-8.33 11.34 -8.66 10.68 -9 10 C-8.67 9.34 -8.34 8.68 -8 8 C-7.34 8 -6.68 8 -6 8 C-5.67 7.01 -5.34 6.02 -5 5 C-4.34 4.67 -3.68 4.34 -3 4 C-2.67 3.01 -2.34 2.02 -2 1 C-1.34 0.67 -0.68 0.34 0 0 Z " fill="#378A8F" transform="translate(117,114)"/>
<path d="M0 0 C0.66 0.33 1.32 0.66 2 1 C1.67 1.66 1.34 2.32 1 3 C0.34 3 -0.32 3 -1 3 C-1 3.66 -1 4.32 -1 5 C-1.66 5 -2.32 5 -3 5 C-3 5.66 -3 6.32 -3 7 C-4.375 8.625 -4.375 8.625 -6 10 C-6.66 10 -7.32 10 -8 10 C-6.75587233 6.55472339 -5.45185936 3.74608248 -3 1 C-2.01 0.67 -1.02 0.34 0 0 Z " fill="#297698" transform="translate(222,264)"/>
<path d="M0 0 C0.66 0 1.32 0 2 0 C2.02721176 1.89575251 2.04649136 3.79161979 2.0625 5.6875 C2.07410156 6.74324219 2.08570313 7.79898438 2.09765625 8.88671875 C2.00865425 11.72410262 1.64939838 14.2438919 1 17 C0.67 17 0.34 17 0 17 C0.01160156 16.18015625 0.02320313 15.3603125 0.03515625 14.515625 C0.04869141 12.89914063 0.04869141 12.89914063 0.0625 11.25 C0.07410156 10.18265625 0.08570313 9.1153125 0.09765625 8.015625 C0.01480735 5.45725082 -0.36493778 3.44870838 -1 1 C-0.67 0.67 -0.34 0.34 0 0 Z " fill="#268897" transform="translate(155,138)"/>
<path d="M0 0 C1.32 0.33 2.64 0.66 4 1 C2.88200014 2.33920838 1.75538103 3.67122556 0.625 5 C-0.00148437 5.7425 -0.62796875 6.485 -1.2734375 7.25 C-2.12808594 8.11625 -2.12808594 8.11625 -3 9 C-3.66 9 -4.32 9 -5 9 C-5 9.66 -5 10.32 -5 11 C-5.66 11 -6.32 11 -7 11 C-7.33 11.66 -7.66 12.32 -8 13 C-7.6875 11.0625 -7.6875 11.0625 -7 9 C-6.01 8.67 -5.02 8.34 -4 8 C-2.87483915 6.16715557 -2.87483915 6.16715557 -2 4 C-1 2 -1 2 0 0 Z " fill="#369188" transform="translate(164,64)"/>
<path d="M0 0 C1.98 0.66 3.96 1.32 6 2 C5.67 3.32 5.34 4.64 5 6 C4.34 6 3.68 6 3 6 C2.67 6.66 2.34 7.32 2 8 C0 6 0 6 -0.125 2.875 C-0.08375 1.92625 -0.0425 0.9775 0 0 Z " fill="#1F78AD" transform="translate(196,234)"/>
<path d="M0 0 C0.99 0.66 1.98 1.32 3 2 C2.67 2.99 2.34 3.98 2 5 C1.01 5 0.02 5 -1 5 C-1.33 6.65 -1.66 8.3 -2 10 C-2.66 9.34 -3.32 8.68 -4 8 C-2.25 2.25 -2.25 2.25 0 0 Z " fill="#1C99AA" transform="translate(88,163)"/>
<path d="M0 0 C0.99 0.33 1.98 0.66 3 1 C0.03 3.97 -2.94 6.94 -6 10 C-6.33 8.68 -6.66 7.36 -7 6 C-5.68 5.67 -4.36 5.34 -3 5 C-3 4.34 -3 3.68 -3 3 C-2.34 3 -1.68 3 -1 3 C-0.67 2.01 -0.34 1.02 0 0 Z " fill="#317B97" transform="translate(275,252)"/>
<path d="M0 0 C1.32 0.33 2.64 0.66 4 1 C2.52386015 2.50297876 1.04400843 4.00231285 -0.4375 5.5 C-1.26121094 6.3353125 -2.08492187 7.170625 -2.93359375 8.03125 C-5 10 -5 10 -6 10 C-6 8.35 -6 6.7 -6 5 C-5.01 5 -4.02 5 -3 5 C-0.85278702 2.80212082 -0.85278702 2.80212082 0 0 Z " fill="#2E8195" transform="translate(238,201)"/>
<path d="M0 0 C0.33 0 0.66 0 1 0 C1 1.65 1 3.3 1 5 C1.99 5 2.98 5 4 5 C4 6.32 4 7.64 4 9 C4.66 9.33 5.32 9.66 6 10 C3 10 3 10 1.3125 8.625 C0 7 0 7 0 5 C-0.99 4.67 -1.98 4.34 -3 4 C-2.34 3.34 -1.68 2.68 -1 2 C-0.67 1.34 -0.34 0.68 0 0 Z " fill="#3192A1" transform="translate(286,163)"/>
<path d="M0 0 C4.52615993 3.67832017 8.39424999 7.41086363 12 12 C11.01 12 10.02 12 9 12 C7.72841339 10.53278468 6.46244416 9.058337 5.2734375 7.5234375 C3.96132035 5.82899746 3.96132035 5.82899746 1.6875 4.3125 C1.130625 3.879375 0.57375 3.44625 0 3 C0 2.01 0 1.02 0 0 Z " fill="#398F9D" transform="translate(294,152)"/>
<path d="M0 0 C1.32 0 2.64 0 4 0 C3.84595887 5.08335725 0.97931568 7.35754718 -2.50390625 10.64453125 C-2.99761719 11.09183594 -3.49132812 11.53914063 -4 12 C-4 11.01 -4 10.02 -4 9 C-3.34 8.38125 -2.68 7.7625 -2 7.125 C0.27138797 5.14922703 0.27138797 5.14922703 0.25 2.25 C0.1675 1.5075 0.085 0.765 0 0 Z " fill="#309190" transform="translate(129,97)"/>
<path d="M0 0 C0.33 0.66 0.66 1.32 1 2 C-0.62339805 3.70884005 -2.29319053 5.37446717 -4 7 C-4.66 7 -5.32 7 -6 7 C-6 7.66 -6 8.32 -6 9 C-6.99 9.33 -7.98 9.66 -9 10 C-7.64717831 5.57258356 -5.76701112 3.63690779 -2 1 C-1.34 0.67 -0.68 0.34 0 0 Z " fill="#287398" transform="translate(211,276)"/>
<path d="M0 0 C0.66 0 1.32 0 2 0 C1.01 3.3 0.02 6.6 -1 10 C-1.33 9.01 -1.66 8.02 -2 7 C-2.66 6.67 -3.32 6.34 -4 6 C-3.34 4.68 -2.68 3.36 -2 2 C-1.34 2 -0.68 2 0 2 C0 1.34 0 0.68 0 0 Z " fill="#2C8098" transform="translate(207,216)"/>
<path d="M0 0 C4.13621084 3.3810038 7.81316569 6.66590534 11 11 C9.35 10.67 7.7 10.34 6 10 C6 9.01 6 8.02 6 7 C5.01 7 4.02 7 3 7 C0 2.77777778 0 2.77777778 0 0 Z " fill="#2D8197" transform="translate(142,213)"/>
<path d="M0 0 C0.66 0.33 1.32 0.66 2 1 C2 1.99 2 2.98 2 4 C1.11054688 4.15275391 1.11054688 4.15275391 0.203125 4.30859375 C-2.36184111 5.11355652 -3.42743483 6.11566902 -5.25 8.0625 C-5.77078125 8.61035156 -6.2915625 9.15820312 -6.828125 9.72265625 C-7.21484375 10.14417969 -7.6015625 10.56570312 -8 11 C-8.66 10.67 -9.32 10.34 -10 10 C-6.7 6.7 -3.4 3.4 0 0 Z " fill="#36839E" transform="translate(314,192)"/>
<path d="M0 0 C0 0.99 0 1.98 0 3 C-0.66 3.66 -1.32 4.32 -2 5 C-1.67 5.66 -1.34 6.32 -1 7 C-2.96466413 8.06775224 -4.96855359 9.06553465 -7 10 C-7.66 9.67 -8.32 9.34 -9 9 C-6.03 6.03 -3.06 3.06 0 0 Z " fill="#2A739A" transform="translate(210,296)"/>
<path d="M0 0 C0.66 0.99 1.32 1.98 2 3 C1.34 3 0.68 3 0 3 C-0.66 4.65 -1.32 6.3 -2 8 C-3.65 8 -5.3 8 -7 8 C-6.02133662 6.85373678 -5.04205413 5.70800212 -4.0625 4.5625 C-3.51722656 3.92441406 -2.97195312 3.28632812 -2.41015625 2.62890625 C-1.63204305 1.73008851 -0.84063472 0.84063472 0 0 Z " fill="#3F8F94" transform="translate(128,123)"/>
<path d="M0 0 C0.99 0.33 1.98 0.66 3 1 C1.02 3.97 1.02 3.97 -1 7 C-2.32 6.34 -3.64 5.68 -5 5 C-3.35 3.35 -1.7 1.7 0 0 Z " fill="#29A0A4" transform="translate(134,117)"/>
<path d="M0 0 C2.16321167 3.24481751 3.6314591 6.35055759 5 10 C4.67 10.99 4.34 11.98 4 13 C1.8206856 11.24135754 1.06313581 10.30604 0.48828125 7.51953125 C0.43027344 6.62621094 0.37226563 5.73289063 0.3125 4.8125 C0.24675781 3.91144531 0.18101562 3.01039063 0.11328125 2.08203125 C0.07589844 1.39496094 0.03851563 0.70789063 0 0 Z " fill="#2F7E98" transform="translate(163,197)"/>
<path d="M0 0 C1.485 0.99 1.485 0.99 3 2 C3 2.66 3 3.32 3 4 C3.99 4 4.98 4 6 4 C5.67 4.99 5.34 5.98 5 7 C2.03 6.505 2.03 6.505 -1 6 C-0.67 4.02 -0.34 2.04 0 0 Z " fill="#1F90A5" transform="translate(300,160)"/>
<path d="M0 0 C9.34375 4.3125 9.34375 4.3125 10.875 8.25 C10.936875 9.11625 10.936875 9.11625 11 10 C10.34 10 9.68 10 9 10 C9 9.34 9 8.68 9 8 C8.443125 7.79375 7.88625 7.5875 7.3125 7.375 C4.07498698 5.44999226 2.31768859 2.96149098 0 0 Z " fill="#379295" transform="translate(244,127)"/>
<path d="M0 0 C0.66 0.33 1.32 0.66 2 1 C1.67 1.99 1.34 2.98 1 4 C0.34 4 -0.32 4 -1 4 C-1.33 4.99 -1.66 5.98 -2 7 C-3.65 7.33 -5.3 7.66 -7 8 C-6.02133662 6.85373678 -5.04205413 5.70800212 -4.0625 4.5625 C-3.51722656 3.92441406 -2.97195312 3.28632812 -2.41015625 2.62890625 C-1.63204305 1.73008851 -0.84063472 0.84063472 0 0 Z " fill="#419193" transform="translate(144,107)"/>
<path d="M0 0 C0.66 0.33 1.32 0.66 2 1 C-0.64 3.64 -3.28 6.28 -6 9 C-6.33 8.01 -6.66 7.02 -7 6 C-4.69 4.02 -2.38 2.04 0 0 Z " fill="#2F7498" transform="translate(243,285)"/>
<path d="M0 0 C0.66 0.33 1.32 0.66 2 1 C-3.14285714 7.57142857 -3.14285714 7.57142857 -7 9 C-7.33 8.01 -7.66 7.02 -8 6 C-7.34 6 -6.68 6 -6 6 C-5.67 5.34 -5.34 4.68 -5 4 C-3.35704805 2.63755204 -1.69175663 1.30135125 0 0 Z " fill="#2D849A" transform="translate(282,204)"/>
<path d="M0 0 C4.13621084 3.3810038 7.81316569 6.66590534 11 11 C8 11 8 11 6.2109375 9.35546875 C5.60507812 8.64003906 4.99921875 7.92460937 4.375 7.1875 C3.76398438 6.47980469 3.15296875 5.77210938 2.5234375 5.04296875 C1 3 1 3 0 0 Z " fill="#3C8D9A" transform="translate(344,160)"/>
<path d="M0 0 C0.66 0.33 1.32 0.66 2 1 C-0.97 3.97 -3.94 6.94 -7 10 C-7.33 8.68 -7.66 7.36 -8 6 C-7.01 6 -6.02 6 -5 6 C-5 5.34 -5 4.68 -5 4 C-3.37373596 2.61767557 -1.7074998 1.28062485 0 0 Z " fill="#3A8F8E" transform="translate(145,86)"/>
<path d="M0 0 C0.66 0.66 1.32 1.32 2 2 C1.625 4.125 1.625 4.125 1 6 C-0.32 5.67 -1.64 5.34 -3 5 C-3.33 5.66 -3.66 6.32 -4 7 C-4 6.01 -4 5.02 -4 4 C-3.34 4 -2.68 4 -2 4 C-1.34 2.68 -0.68 1.36 0 0 Z " fill="#196BAD" transform="translate(174,290)"/>
<path d="M0 0 C0.99 0.33 1.98 0.66 3 1 C2.625 2.9375 2.625 2.9375 2 5 C1.01 5.495 1.01 5.495 0 6 C-0.40729228 8.32156597 -0.74438677 10.6568787 -1 13 C-1.33 13 -1.66 13 -2 13 C-2.16682272 8.07872966 -2.24828052 4.49656104 0 0 Z " fill="#1F8399" transform="translate(300,231)"/>
<path d="M0 0 C7.48291572 6.15034169 7.48291572 6.15034169 10 10 C7.6875 9.8125 7.6875 9.8125 5 9 C3.3125 6.6875 3.3125 6.6875 2 4 C1.33429481 2.66618636 0.66780311 1.33276451 0 0 Z " fill="#318198" transform="translate(132,203)"/>
<path d="M0 0 C3.465 1.485 3.465 1.485 7 3 C5.8125 4.5625 5.8125 4.5625 4 6 C1.3125 5.6875 1.3125 5.6875 -1 5 C-0.67 4.34 -0.34 3.68 0 3 C-0.33 2.67 -0.66 2.34 -1 2 C-0.67 1.34 -0.34 0.68 0 0 Z " fill="#2492A6" transform="translate(283,146)"/>
<path d="M0 0 C-1.3125 1.5 -1.3125 1.5 -3 3 C-3.99 3 -4.98 3 -6 3 C-6.66 1.68 -7.32 0.36 -8 -1 C-4.37673261 -2.2077558 -3.35853631 -1.54311128 0 0 Z " fill="#238B99" transform="translate(283,140)"/>
<path d="M0 0 C2.97 0.495 2.97 0.495 6 1 C6.33 2.98 6.66 4.96 7 7 C6.01 6.67 5.02 6.34 4 6 C4 5.34 4 4.68 4 4 C3.34 4 2.68 4 2 4 C2 3.34 2 2.68 2 2 C1.34 2 0.68 2 0 2 C0 1.34 0 0.68 0 0 Z " fill="#338E9A" transform="translate(256,138)"/>
<path d="M0 0 C1.14926266 0.95421808 2.29430541 1.91352045 3.4375 2.875 C4.07558594 3.40867188 4.71367187 3.94234375 5.37109375 4.4921875 C7 6 7 6 8 8 C5.6875 7.8125 5.6875 7.8125 3 7 C0 2.96551724 0 2.96551724 0 0 Z " fill="#2F7F9A" transform="translate(159,230)"/>
<path d="M0 0 C0.66 0.99 1.32 1.98 2 3 C1.34 4.32 0.68 5.64 0 7 C-0.66 7 -1.32 7 -2 7 C-2 6.34 -2 5.68 -2 5 C-2.66 5 -3.32 5 -4 5 C-4 4.01 -4 3.02 -4 2 C-2.68 2 -1.36 2 0 2 C0 1.34 0 0.68 0 0 Z " fill="#2E869D" transform="translate(100,186)"/>
<path d="M0 0 C1.32 0.33 2.64 0.66 4 1 C4.625 2.875 4.625 2.875 5 5 C4.34 5.66 3.68 6.32 3 7 C2.01 6.34 1.02 5.68 0 5 C0 3.33333333 0 1.66666667 0 0 Z " fill="#1A97A9" transform="translate(290,169)"/>
<path d="M0 0 C0.33 2.31 0.66 4.62 1 7 C0.01 7.33 -0.98 7.66 -2 8 C-2.66 6.35 -3.32 4.7 -4 3 C-1.125 0 -1.125 0 0 0 Z " fill="#2BA2A6" transform="translate(149,103)"/>
<path d="M0 0 C0 0.33 0 0.66 0 1 C-1.1446875 1.1546875 -1.1446875 1.1546875 -2.3125 1.3125 C-5.19497655 2.04987772 -6.09539142 2.80970014 -8 5 C-8.33 5 -8.66 5 -9 5 C-9 3.35 -9 1.7 -9 0 C-5.93109813 -1.53445094 -3.29905734 -0.54984289 0 0 Z " fill="#2B9690" transform="translate(158,102)"/>
<path d="M0 0 C-0.9520721 1.00596297 -1.91187346 2.00461563 -2.875 3 C-3.40867187 3.556875 -3.94234375 4.11375 -4.4921875 4.6875 C-6 6 -6 6 -8 6 C-6.53781513 1.3697479 -6.53781513 1.3697479 -4 -0.375 C-2 -1 -2 -1 0 0 Z " fill="#3A7F9A" transform="translate(66,170)"/>
<path d="M0 0 C1.32 0.66 2.64 1.32 4 2 C4 2.99 4 3.98 4 5 C2.35 5 0.7 5 -1 5 C-0.67 3.35 -0.34 1.7 0 0 Z " fill="#349E94" transform="translate(225,43)"/>
<path d="M0 0 C1.32 0.33 2.64 0.66 4 1 C0.535 3.97 0.535 3.97 -3 7 C-3.33 6.34 -3.66 5.68 -4 5 C-3.67 4.01 -3.34 3.02 -3 2 C-2.01 2 -1.02 2 0 2 C0 1.34 0 0.68 0 0 Z " fill="#2B7A9A" transform="translate(252,233)"/>
<path d="M0 0 C1.32 0.99 2.64 1.98 4 3 C2.71034824 4.37562854 1.37310707 5.70766393 0 7 C-0.66 7 -1.32 7 -2 7 C-1.34 4.69 -0.68 2.38 0 0 Z " fill="#3C7B89" transform="translate(223,214)"/>
<path d="M0 0 C2.31 1.98 4.62 3.96 7 6 C5.68 6.33 4.36 6.66 3 7 C0 2.25 0 2.25 0 0 Z " fill="#369990" transform="translate(241,58)"/>
<path d="M0 0 C1.98 0 3.96 0 6 0 C6.33 1.32 6.66 2.64 7 4 C4.625 3.6875 4.625 3.6875 2 3 C1.34 2.01 0.68 1.02 0 0 Z " fill="#1C71B4" transform="translate(180,284)"/>
<path d="M0 0 C3.79588866 0.54226981 5.47211993 2.20127563 8 5 C7.67 5.99 7.34 6.98 7 8 C5.83035398 6.8572081 4.66435444 5.71068285 3.5 4.5625 C2.8503125 3.92441406 2.200625 3.28632813 1.53125 2.62890625 C0 1 0 1 0 0 Z " fill="#367C9B" transform="translate(150,244)"/>
<path d="M0 0 C1.32 0 2.64 0 4 0 C4.33 1.32 4.66 2.64 5 4 C3.33333333 4 1.66666667 4 0 4 C-0.33 3.01 -0.66 2.02 -1 1 C-0.67 0.67 -0.34 0.34 0 0 Z " fill="#2180AF" transform="translate(229,199)"/>
<path d="M0 0 C0.99 0 1.98 0 3 0 C2.67 1.98 2.34 3.96 2 6 C0.0625 5.625 0.0625 5.625 -2 5 C-2.33 4.34 -2.66 3.68 -3 3 C-2.34 3 -1.68 3 -1 3 C-0.67 2.01 -0.34 1.02 0 0 Z " fill="#1F9AB0" transform="translate(90,178)"/>
<path d="M0 0 C2.6875 0.3125 2.6875 0.3125 5 1 C4.01 1.495 4.01 1.495 3 2 C3 2.66 3 3.32 3 4 C2.01 4.33 1.02 4.66 0 5 C-0.99 4.34 -1.98 3.68 -3 3 C-1.8125 1.4375 -1.8125 1.4375 0 0 Z " fill="#378A96" transform="translate(95,156)"/>
<path d="M0 0 C-0.66 1.32 -1.32 2.64 -2 4 C-3.32 2.68 -4.64 1.36 -6 0 C-3.50907189 -1.24546405 -2.58919267 -0.7767578 0 0 Z " fill="#2090A5" transform="translate(329,161)"/>
<path d="M0 0 C0.66 0 1.32 0 2 0 C1.75 1.875 1.75 1.875 1 4 C-1.0625 5.25 -1.0625 5.25 -3 6 C-2.42655063 3.13275314 -2.1385485 2.1385485 0 0 Z " fill="#2C99A8" transform="translate(99,152)"/>
<path d="M0 0 C1.32 0.33 2.64 0.66 4 1 C3.67 3.64 3.34 6.28 3 9 C0.90250005 6.64031256 0.03094296 5.45383006 -0.1875 2.25 C-0.125625 1.5075 -0.06375 0.765 0 0 Z " fill="#2EA49D" transform="translate(258,48)"/>
</svg>
